<svg version="1" xmlns="http://www.w3.org/2000/svg" width="6614.667" height="6614.667" viewBox="0 0 4961.000000 4961.000000"><path d="M913.2 1070.8c.2.4 31.6 41.9 69.8 92.1 38.2 50.2 87.7 115.2 109.9 144.5 22.2 29.2 40.7 53.5 41.2 54.1.6.6 3.7-1.9 8.3-6.4l7.3-7.2 6.1 1.5c8.4 2.2 26 3.9 30.2 2.9l3.6-.8-32.6-55.6c-17.9-30.5-54.9-93.8-82.4-140.7l-49.9-85.2h-55.9c-30.8 0-55.8.4-55.6.8zM1035.2 1072.2c.8 1.3 21.9 37.2 46.8 79.8 76.3 130.4 116.2 198.5 116.5 198.9 1 .9 20-5.5 28-9.4 10-5 21.2-12.9 20.7-14.8-.2-.7-24.5-58.7-54-128.9l-53.7-127.8H1033.8l1.4 2.2z"/><path d="M1151.4 1077.7c1.8 4.3 26.8 63.8 55.6 132.3l52.2 124.5 20.7 20.8 20.6 20.7-40 40-40 40 36.4 36.3c20 19.9 35.5 34.6 34.3 32.7-1.1-1.9-10.3-17.7-20.4-35-10.2-17.3-19-32.4-19.6-33.6-.9-1.8-.7-2.5 1.7-4.8l2.8-2.7 29.6 50.8 29.7 50.8 23.1 23c17.6 17.5 22.7 22.2 21.6 19.5-.8-1.9-8.5-20.4-17.2-41s-25-59.1-36.1-85.5l-20.3-48 2.7-2.8c1.4-1.5 2.8-2.7 3.2-2.7.3 0 1.3 1.9 2.2 4.2.9 2.4 19.5 46.8 41.2 98.8l39.7 94.5 9.6 9.7c5.3 5.4 9.9 9.6 10.1 9.4.2-.2-8.9-33.6-20.2-74.2-11.2-40.7-32.2-116.6-46.6-168.9-14.4-52.2-26.4-95.3-26.6-95.7-.8-1.3.1-1 4.9 1.8 4 2.2 4.8 3.2 6.1 7.7 4.5 15.7 83.1 303.4 89.1 326.2l3.7 14 6.1 6.2c3.3 3.4 6.3 6.1 6.5 5.9.2-.2-.4-5.3-1.2-11.3-2.2-15-7.5-54.9-23.6-178.8-7.7-58.9-14.1-108.6-14.4-110.5l-.5-3.4 4.4 4.5 4.5 4.5 11.5 88.9c6.4 49 15.1 117.3 19.5 151.9l7.9 62.9 2.9 3c2.8 2.8 3 2.9 4 1.1.7-1.3 1.4-42.2 2.2-114.4.6-64.9 1.5-113.5 2.1-114.8.7-1.9-.2-4.6-4.6-14.4-22.6-50.1-58-94.1-102.8-127.7l-9.4-7.1h-24.2l-11.8-5.8c-6.5-3.2-16-7.4-21.1-9.2l-9.4-3.5-5-10c-2.8-5.5-5.5-10.3-6-10.6-2.3-1.5 5.1-1.8 21.5-.9 9.6.5 19.3 1.2 21.6 1.6 2.3.4 4.1.4 4.1.2 0-.3-5.2-19.3-11.6-42.4-6.3-23-17.1-62.4-24-87.4-6.9-25-12.7-46.3-13-47.3-.5-1.6-3.6-1.7-46.9-1.7h-46.4l3.3 7.7z"/><path d="M1251.6 1078.7c1.3 4.9 12.4 45.2 24.6 89.8 12.2 44.5 22.3 81.1 22.4 81.3.1.2 5.7 1.4 12.3 2.7 17.4 3.4 39 9.7 55.2 16 1.4.5 1.1-2.7-1.7-24.7-1.8-13.9-7.6-58.4-12.8-99-5.3-40.5-9.6-73.9-9.6-74.2 0-.3-20.9-.6-46.4-.6h-46.4l2.4 8.7zM1350 1070.4c0 .2.9 7.1 2 15.2 3.7 28.3 24 185.5 24 186.3 0 .5 2.8 2.1 6.3 3.6 10.5 4.6 30.6 16 43.2 24.3 6.6 4.4 12.1 7.9 12.2 7.8.2-.2 3.3-211.1 3.3-227.1V1070h-45.5c-25 0-45.5.2-45.5.4zM1449 1085.2c0 8.4-.7 60.3-1.5 115.3s-1.5 103.2-1.5 107.1v7.1l6.3 4.8c3.4 2.7 13.7 12.4 22.9 21.6 12.2 12.2 16.8 16.3 17.2 15.1.2-.9.7-3.7 1-6.2.9-7.2 40.6-276.3 41-278.3.4-1.6-2.1-1.7-42.5-1.7H1449v15.2zM1542.5 1072.2c-.3 1.8-40.6 272.5-43.2 291-.5 3.3.1 4.5 6.6 13.2 57.9 77 76.8 182.8 49.4 277.1-7.8 27-21.4 57.3-36.1 80.7l-7.9 12.6 25.6 25.5 25.6 25.4 14 3.8c7.7 2.1 72.5 20.5 144.1 40.9l130 37.2 5.9-11.3c3.2-6.2 5.6-11.5 5.4-11.6-.2-.2-11.6-2.7-25.4-5.5-41.8-8.6-147.1-30.5-198-41.2-26.4-5.6-54.9-11.6-63.3-13.3l-15.3-3.2.5-2.9c.4-1.6.7-3.1.9-3.2.4-.4 101.8 20.2 231.2 47 62.4 12.9 74.2 15.1 75 13.9.6-.8 3.8-5.7 7.2-10.8l6.2-9.4-2.7-.5c-1.5-.3-34.9-4.9-74.2-10.1-61.5-8.2-97.2-13.1-223.5-30.3l-20-2.8-.3-3.2c-.2-2 .1-3.2.9-3.2.7 0 9.6 1.1 19.8 2.4 10.2 1.4 38 5 61.6 8.1 85.1 11.1 239 31.5 241.1 32 1.7.4 3.7-1.6 10.6-10.3l8.5-10.8-93.1-6.2c-105.6-7.2-181.2-12.4-212.3-14.6-11.7-.9-21.7-1.6-22.3-1.6-.5 0-.9-1.5-.7-3.2.2-3.1.4-3.2 4.2-3 17.4.9 139.7 8.8 230 14.8 53.9 3.6 98.6 6.3 99.5 6.2.8-.2 6.5-5.5 12.7-11.8l11.2-11.5h-47.2c-26 0-104-.1-173.4-.3l-126.3-.2v-7H1939.7l5.9-5.2c3.2-2.8 10.4-8.7 15.9-13.1l10-8-7.5.7c-12.1 1-278.4 17.5-333.5 20.6-9.9.6-20.4 1.3-23.2 1.6l-5.3.5v-3.5c0-3.3.3-3.6 2.8-3.6 1.6 0 12.9-.7 25.3-1.5 45.2-3.2 112.2-7.5 230.9-15.1l121.5-7.7 15.1-9.3c20.1-12.3 54-29.1 66.2-32.9 1.3-.4 2.1-.9 1.9-1.1-.2-.3-32.8 4-72.3 9.5-73.2 10.2-105.6 14.7-213.9 29.6-99.4 13.7-120.1 16.5-120.9 16.5-.4 0-.6-1.5-.4-3.2l.3-3.3 19.5-2.7c74.1-10.6 186.5-26.4 300.5-42.3 73.2-10.2 140.2-19.9 149-21.5 18.2-3.5 33.7-5.6 51-6.9 6.6-.6 30.7-3.7 53.5-7 57.1-8.3 177.3-25.1 1059.5-148.1 422.4-58.9 768.9-107.5 769.9-107.9 1.6-.6-.5-2.7-12.5-12.7-51.3-42.7-99.4-74.8-158-105.7l-12.5-6.7-620 126.6c-651.2 132.9-836.3 170.6-972.9 198.4-45.6 9.3-130.7 26.6-189 38.5-128.7 26.2-220.8 45-273.5 55.6-105.8 21.4-168.5 33.9-169.6 33.9-.9 0-2.7-5-2-5.7.5-.5 224.4-46.6 524.1-107.8 55-11.3 168.2-34.4 251.5-51.4 83.3-17 441-90.1 794.8-162.3 353.7-72.2 643.2-131.5 643.2-131.8-.1-.6-7.9-4.3-31-14.2-56.9-24.7-114.7-42.6-175.7-54.8-25.7-5.1-61.7-10.3-66.8-9.7-2.2.2-144.2 38.3-315.5 84.7l-311.5 84.2-10.4 8.2c-33.4 26.1-71.5 60.7-97.8 88.8l-9.1 9.7-11.4-11.6c-11.8-12.2-34.7-34.6-43.3-42.5l-5.1-4.7-153.4 41.5c-169.4 45.8-367 99.2-509 137.5-82.3 22.3-115.8 31.3-220 59.4-32 8.6-125.9 33.9-180 48.4-71.6 19.2-93.5 25-93.6 24.8-.1-.1-.5-1.6-.8-3.2l-.6-3 76.7-20.9c84.6-23.1 137.9-37.6 193.3-52.6 20.1-5.4 63.3-17.1 96-26 32.7-8.9 100-27.1 149.5-40.5 49.5-13.4 145.1-39.3 212.5-57.5 67.4-18.2 189.7-51.4 271.9-73.6 82.2-22.2 149.6-40.5 149.7-40.7.4-.4-14.3-13-29.6-25.3-16.7-13.4-37-28.4-52.1-38.7l-11.4-7.7-181.5 64.4c-269.1 95.4-558 197.9-595.5 211.1-201.9 71.4-263.3 93.1-289.1 102l-21 7.3-1.2-3c-.8-2.2-.8-3 .1-3.3.7-.3 10.7-3.9 22.2-8.1 23.3-8.4 210.1-75.1 273-97.4 12.1-4.3 111.6-39.6 221-78.5 256.2-90.9 556-197.4 560.4-198.9l3.4-1.2-15.7-9.8c-31.7-19.6-91-50.9-96.6-50.9-1.4 0-43.2 18.4-93 41-181 82.1-657 297.2-807.5 364.8-84.9 38.2-80.1 36.2-79.6 33.2 0-.4-.4-.7-.9-.7-.6 0-1-.7-1-1.5 0-1 3-2.9 7.8-5.1 16.6-7.7 155-70.6 215.7-98.2 88.4-40.1 321.1-145.4 590.5-267.2 86.6-39.2 157.6-71.3 157.8-71.5.4-.3-25.5-11.1-42.3-17.5-21.8-8.4-48.7-17.2-72.6-24l-20.8-5.9-329.8 188.6c-324.9 185.7-509.9 291.3-524 298.9-3.9 2.1-7.4 3.6-7.8 3.2-.4-.4-.2-2.2.4-4 1-2.8 3-4.4 14.4-10.9 7.2-4.2 34.6-19.9 60.7-34.9 69.2-39.8 294.2-168.8 550.4-315.3 204.2-116.8 223.7-128.2 221-128.9-1.6-.4-11.2-2.6-21.4-4.7-30.4-6.5-66.8-12-100.2-15.1l-11.8-1.1-95.7 67.2c-52.7 37-131.3 92.2-174.8 122.7-43.4 30.5-96.1 67.5-117 82.2-93.8 65.9-183.7 128.9-239.5 167.9-33.3 23.3-64.9 45.5-70.3 49.2-5.4 3.8-10 6.9-10.2 6.9-.2 0 .4-2.3 1.3-5.1 1.6-5 1.8-5.2 23.2-20.3 25.3-18 96.1-67.9 167.5-118.1 118.6-83.4 281.7-198.1 417.9-293.8 46.6-32.9 84.4-59.7 84-59.7-.5 0-12.8-.5-27.4-1-38.5-1.4-79.6.2-121.5 4.7l-15.9 1.7-51.6 45.7c-291 258-411.4 364.6-461.9 409.1-3.6 3.2-6.6 5.7-6.7 5.5-.1-.1.3-2.6.8-5.5.9-4.1 1.9-6 4.8-8.5 2-1.8 56-49.8 120.1-106.7 64-57 154.4-137.3 200.9-178.5 46.5-41.2 85.6-76 87-77.3 1.4-1.2 22.4-19.9 46.7-41.5 24.3-21.6 43.6-39.3 42.9-39.5-1.8-.4-28.2 4.1-49 8.4-29.4 6.1-56.1 13-86.1 22.6l-16 5.1-31.5 35.1c-33.4 37.2-235.4 261.8-284.9 316.9-16.2 18-29.6 32.5-29.8 32.4-.1-.2.1-2.9.5-6l.7-5.8 27-30.1c14.9-16.6 76.7-85.6 137.5-153.3 151.5-168.9 160.2-178.6 162.3-181.2 1.8-2.3 1.7-2.3-6.1.6-48.5 17.9-105 45.3-148.7 72.3l-13 8-79.4 119.4c-43.6 65.7-79.7 119.4-80.2 119.4s-.9-2.5-.9-5.5v-5.5l70.1-105.8c38.6-58.1 70.9-106.8 71.8-108.2 1.3-2 1.3-2.3.1-1.5-4 2.3-17.4 11.5-25.3 17.3-4.8 3.5-9 6.2-9.3 5.9-.3-.3 8.5-51.3 19.5-113.4l19.9-112.8-13.1-26.8-13.1-26.7h-29.7c-27.5 0-29.8.1-30.3 1.7-.3 1-8.7 30.1-18.6 64.8-10 34.6-28.5 98.8-41.1 142.5-12.6 43.7-27.1 93.8-32.1 111.2-5 17.5-9.4 31.8-9.7 31.8-.3 0-1.6-1.9-2.9-4.3l-2.2-4.2 19.5-68c10.8-37.4 32.2-111.9 47.7-165.5 15.4-53.6 28.9-100.3 29.8-103.8l1.9-6.2H1543l-.5 2.2zm127.1 171.6l-2.5 14-23.4 52.4c-66.2 147.7-76.7 170.9-77.5 172.5-.8 1.3-1.3.6-2.7-3.8l-1.6-5.4 27.1-60.5c14.9-33.3 39.5-88.3 54.7-122.2 15.2-34 27.8-61.6 28-61.4.2.2-.7 6.7-2.1 14.4zM903 1088.4c-11.2 20.6-27.3 42.7-44.9 61.7l-8.9 9.5 63.7 65c35 35.8 89.5 91.5 121.1 123.8l57.4 58.8 18.9-19.1c10.4-10.4 18.7-19.5 18.5-20-.1-.6-19.3-25.9-42.4-56.3-23.2-30.4-72-94.5-108.4-142.3-36.5-47.9-67-87.9-67.9-89.1-1.6-2-1.8-1.8-7.1 8zM834.9 1172.7c-18.2 16-39.3 30.9-61.3 43.4-7 4-12.3 7.5-11.9 7.9.4.4 31.4 25 68.8 54.7 37.4 29.6 101.5 80.6 142.5 113.1l74.4 59.2 18.8-18.7c10.4-10.4 18.7-19.3 18.6-20-.2-.6-29.6-31-65.4-67.5-35.7-36.5-78.3-79.8-94.4-96.3-16.2-16.5-41.2-41.9-55.6-56.6l-26.1-26.5-8.4 7.3z"/><path d="M3435 1181.1c-139.1 9-269.6 49.2-390 120.2-12.7 7.5-62.2 39.8-61.7 40.3.1.1 131.9-35.4 292.9-78.9 264.1-71.5 292.3-79.3 288-79.9-18.7-2.6-98.8-3.7-129.2-1.7zM745 1230.7c-4.1 1.9-7.6 3.6-7.8 3.8-.3.3-16.1 87.1-16.2 88.7 0 .3 12.7 8.4 28.3 17.9 15.5 9.5 78.3 47.8 139.5 85.1s112 68.2 112.8 68.5c1.1.4 7.2-5 20.5-18.3 10.4-10.4 18.9-19.3 18.8-19.9 0-.5-30.4-25.1-67.6-54.5-37.2-29.4-101.8-80.6-143.6-113.7-41.7-33.2-76.2-60.5-76.5-60.7-.4-.2-4.1 1.2-8.2 3.1z"/><path d="M710.2 1383.8c-5.1 28.4-8.9 51.9-8.5 52.3.7.6 232.7 103.2 340.8 150.6 24.1 10.6 25.3 11.2 32.3 17.9 4.1 3.7 7 7 6.5 7.1-.5.2-14.6-5.7-31.4-13.1-16.7-7.4-54.9-24.2-84.9-37.4-30-13.2-100.2-44.1-156-68.7s-103.3-45.6-105.6-46.5l-4-1.8-5.3 29.7c-2.9 16.3-5.5 30.8-5.8 32.2-.4 2.2 1.9 4.7 19.5 21.2l20.1 18.7h50c47.1 0 50.1.1 50.1 1.7-.1 1-2.3 13.9-4.9 28.8-2.7 14.8-4.7 27.1-4.6 27.3.1.2 34.8 9.1 77.1 19.8 147.9 37.5 348.2 88.4 384.8 97.8l36.9 9.5 4.3 4.2c2.4 2.4 4.2 4.4 4 4.6-.4.4-148.2-36.7-379.6-95.1-70.6-17.9-128.7-32.1-129-31.6-.8 1.3-16.3 90-15.9 90.4.2.2 34.2 3.4 75.4 7 41.3 3.7 76.6 6.9 78.5 7.1 3.4.5 4.1 0 25.5-20.8l22-21.4 11.5 10.7c14.7 13.5 29.5 25.4 43.5 34.6 10.4 6.8 11.4 7.3 18 7.8 16.7 1.5 239.3 21.8 252 23l14 1.4 4.3-2.5c2.3-1.4 4.2-2.8 4.2-3.1 0-.4-47.3-47.8-105.2-105.4l-105.3-104.6-29.7 29.5-29.6 29.6-13-12.4c-7.1-6.8-27.2-26.8-44.5-44.5l-31.6-32.1 3-2.9 2.9-2.9-50.3-30.6c-27.6-16.9-86.2-52.6-130.2-79.4-44-26.9-83.9-51.2-88.6-54l-8.5-5.2-9.2 51.5zm478.2 225.2c24 14.6 32 20.7 40.9 31.3 2.3 2.8 3.8 4.8 3.2 4.5-2.9-1.7-102.4-62.2-104.4-63.5l-2.3-1.5 2.7-2.8 2.7-2.8 16.7 10.1c9.1 5.6 27.4 16.7 40.5 24.7zm-48.4 20.8c21.2 9.4 52.9 23.4 70.5 31.2 17.6 7.8 40.1 17.8 50.1 22.2 17.3 7.6 18.4 8.2 25 14.9l6.9 7-9-4c-4.9-2.1-17.8-7.7-28.5-12.4-41.5-18.1-161.3-70.8-163.2-71.8-2-1.1-1.9-1.1.7-3.9 2.6-2.7 3-2.8 5.9-1.6 1.7.8 20.4 9 41.6 18.4zM3294.5 1511.5c-659.9 92.1-958.9 133.9-1038.8 144.9-16.8 2.3-21.7 3.6-13.9 3.6 5.5 0 31 3.6 43.1 6.1 32 6.5 66.2 18.1 93.1 31.4l10.5 5.2 15-1.4c16.8-1.5 529.9-43.4 1291-105.3 277.8-22.6 506.2-41.4 507.7-41.8l2.7-.7-10.6-14.5c-23.4-32.2-45.3-58.3-75.7-90.4-16-17-46.3-45.7-48-45.5-.6.1-349.8 48.8-776.1 108.4zM1444.1 1454.5c-.1 1.6-.6 30.7-1.1 64.5-.5 33.8-1.2 76.8-1.5 95.5-.7 37.5-.8 36.9 5.2 21.5 5.6-14.1 8.2-24.5 11.5-46 2.8-17.5 3.2-23 3.2-37.5-.1-18.5-1.4-32.4-4.5-51-2-12-8.5-38.5-11.3-46-1.4-3.9-1.5-3.9-1.5-1z"/><path d="M3515.5 1618.5c-378.9 31-784.7 64.1-901.6 73.6l-212.6 17.3 10.2 6.2c20.1 12 44.4 30.3 61.7 46.4l7.8 7.2 20.2-.7c11.2-.3 178.6-2.6 372-5l351.8-4.5 8.2-7.1c73.8-63.9 176.9-98.8 275.6-93.1 39.5 2.3 72.9 8.7 107.7 20.5 43.4 14.7 86.7 38.5 120.5 66.2l8.5 6.9 267-3.2c146.9-1.8 273-3.4 280.3-3.7l13.2-.6 1.7 3.6c.9 1.9 1.3 3.8.9 4.2-.7.7-469 7.1-527.5 7.2l-26.4.1 15.9 16.2c34.9 35.7 60 72.4 79.5 116.3l6.7 15 5.4.8c2.9.4 110.8 5.9 239.8 12.2 129 6.3 238.4 11.8 243.2 12.1l8.8.7.6 3.4c.4 1.9.4 3.6.1 3.9-.2.3-109.3-4.9-242.3-11.6-133.1-6.6-244.2-12-247.1-12h-5.2l4 11.7c8 23.8 13.9 50.3 17.5 78.8 1.3 10.4 1.8 21.5 1.8 43.2.1 18.9.5 29.3 1.1 29.3 3.3-.1 472.1 59.4 472.8 59.9 1.3 1.3-.4 7.1-2.2 7.1-.9 0-107.3-13.3-236.5-29.6-174.8-22-235.1-29.3-235.6-28.4-.4.6-1 4.8-1.4 9.2-1.8 21.3-9.9 57.7-18.5 83-5.1 15-14.6 37.9-20.7 50-1.9 3.8-3.4 7.2-3.2 7.3.2.2 107 21.3 237.3 47 130.4 25.6 237.5 46.8 238.2 47 1.4.5-.5 7.5-2 7.5-1 0-472.2-92.6-476.2-93.6-1.6-.4-2.7.8-5.9 6.3-7.1 12.6-22.4 34.7-33.2 48.3-13 16.2-43.8 47.2-58.6 59-8.6 6.8-10.4 8.7-9 9.2.9.5 114.8 30.9 253 67.7 138.2 36.7 251.5 67.1 251.8 67.4.7.7-2.7 6.7-3.8 6.7-.3 0-115.6-30.6-256-68l-255.2-67.9-13.6 8.8c-16.5 10.8-23.9 15.1-39.6 22.9-44.7 22.4-95.1 36.5-143 40.2-8.2.6-18.8 1.5-23.5 1.8l-8.6.7 311.4 105c171.3 57.7 311.6 105.2 311.8 105.5.2.4-.9 1.9-2.5 3.5l-2.8 2.7-246.9-83.2c-135.7-45.8-281.4-94.9-323.6-109.1l-76.9-25.9-13.8-1.5c-67.5-7.1-133-31.6-187.2-70.1-4.3-3-7.8-5.2-7.8-5 0 .3 3.2 2.8 7.2 5.6 3.9 2.7 6.9 5 6.5 5-.3 0-53.3-17.8-117.9-39.6-382-128.8-559-188.4-559.7-188.4-.4 0-1.6 3-2.6 6.7-3.1 11.5-12.2 37.3-17.1 48.3-2.5 5.8-4.7 11.3-4.8 12.4-.1 1.5 36.9 17.2 226.4 96.4 124.6 52 434.1 181.2 687.9 287.1 253.7 105.9 461.4 193 461.5 193.4 0 .4-1.5 1.7-3.5 2.9l-3.6 2-428.9-179c-235.9-98.5-543.9-227.1-684.4-285.7-140.5-58.7-256.5-107.1-257.7-107.5-1.9-.8-2.7.2-8.5 10.8-8.9 16.1-16.4 28.1-26.7 42.5l-8.8 12.2 28.6 14.8c38.5 20-11-5.8 593.9 309.2 297.6 155 541.2 282.2 541.2 282.6 0 .3-2.4 1.1-5.2 1.7l-5.3 1-520.5-271c-490.3-255.4-587.9-306.2-623.1-324.8l-14.7-7.7-4.8 6.1c-11.6 14.3-37.5 39.5-56.7 54.9-5.7 4.6-5.7 4.7-3.5 6.1 1.3.8 35.2 21.7 75.3 46.4 367 225.9 798.7 492.6 797.9 492.9-.5.1-5.4-.7-10.9-2l-10-2.3-287-177.1c-157.8-97.3-337.8-208.4-400-246.8-62.1-38.4-126.8-78.3-143.6-88.7l-30.6-18.8-10.4 7.1c-22.1 15.1-50.5 30.3-74.3 39.9l-10.5 4.2 115.6 93.1c63.6 51.3 152.1 122.6 196.7 158.5 44.6 36 81.2 65.7 81.4 66.2.2.4-1.1 1.8-2.8 3l-3 2.1-17.8-14.3c-9.7-7.8-48.1-38.8-85.2-68.7-37.1-30-114.1-92.1-171-138-56.9-45.9-107.8-86.9-113.1-91.3l-9.6-7.8-8.9 3c-30.9 10.5-70.2 17-113.9 18.8l-16 .7 81.4 78.5c241.2 232.6 315.6 304.5 315.9 305 .1.3-1.4 1.4-3.4 2.4l-3.7 1.7-7.1-6.9c-6.6-6.4-123.7-119.5-315-304-43-41.5-78.6-76-79.1-76.7-.6-.7-4.8-1.5-10-1.9-59.2-4.8-116.9-22.7-168.5-52.2l-6.5-3.8 3.5 4c1.9 2.1 42.1 47.1 89.2 99.9 47.1 52.8 145.7 163.3 219.1 245.5 73.4 82.2 133.1 149.8 132.8 150.3-.4.4-2.5.8-4.6 1l-3.9.2-132-148.1c-72.7-81.4-176.4-197.7-230.5-258.5-78.1-87.7-100-111.7-106.5-116.7-41.7-32.5-76.4-71.3-101.7-113.7-4.1-7-14.1-18.9-44.5-53-21.5-24.2-65.4-73.5-97.5-109.5-56.5-63.4-100.1-112.5-135.8-152.8-9.4-10.7-17.1-19.7-17.1-20.2 0-.4 1-1.4 2.3-2.3 2.2-1.4 2.7-1 21.2 19.6 33.8 37.5 169.2 189 222.9 249.2 31.6 35.4 29.2 33 27.1 28-9.7-23.1-16.9-43.8-21.6-62.4l-2.4-9.3-15-14.6c-8.2-8.1-45.4-44.1-82.5-80.1-76-73.7-96-93.2-130.9-127.7-22.4-22.2-24.2-24.3-23.2-26.2.7-1.2 1.7-2.2 2.3-2.2 1 0 28.3 25.9 66.8 63.5 15.7 15.3 156.1 151 172 166.2l7.6 7.2-1.7-10.2c-1-5.6-2.3-15.8-2.9-22.7-2.1-21.7-.3-18.6-18.5-33.5-8.8-7.2-42.3-34.7-74.5-61-150.2-123-167.4-137.2-167.7-138.8-.2-.7.4-2 1.2-3.1 1.3-1.7 1.7-1.6 7.2 2.7 9.5 7.4 58.4 47.2 142.3 115.6 27.8 22.6 59.7 48.7 71 57.9 11.3 9.2 24.2 19.8 28.7 23.5l8.3 6.8v-35.7l-33.7-23.6c-62.5-43.5-139.5-97.2-183.2-127.7l-43.3-30.4 2.8-2.2c2.8-2.2 3-2.2 5.4-.6 1.4 1 26.1 18.1 55 38.1s85.1 59 124.9 86.7c39.8 27.7 72.5 50.2 72.6 50.1.1-.2 1-6.8 1.9-14.8 1-7.9 1.9-14.7 2.1-15 .2-.3-32.2-19.5-71.8-42.7-39.7-23.2-92.7-54.2-117.7-68.8-25-14.7-50.1-29.4-55.8-32.8l-10.3-6 2.4-2.5 2.5-2.5 42.9 24.8c23.5 13.7 51.1 29.7 61.3 35.6 10.2 5.9 47.5 27.6 83 48.2 35.4 20.7 64.5 37.5 64.6 37.4.4-.4 6.4-28.1 6.1-28.2-.1-.1-11.9-5.7-26.2-12.5-14.3-6.8-33.9-16.1-43.5-20.8-9.6-4.6-27.2-13-39-18.7-11.8-5.6-33.4-16-48-23-14.6-7-31.4-15.1-37.5-18-6-2.9-19.5-9.4-30-14.5-10.4-5.1-21.4-10.3-24.3-11.6-4.4-2-5.2-2.7-4.2-3.9.6-.8.9-2.3.5-3.5-.3-1.1-.4-2-.2-2s6.9 3.1 14.8 6.9c7.9 3.8 32.6 15.5 54.9 26.1 39.4 18.7 60.9 28.9 143 68 21.7 10.4 40.1 19 40.8 19.2.9.2 2.9-4.4 6.1-14.4l4.8-14.7-2.6-.9c-1.4-.5-19-7.1-39.1-14.5-20.1-7.5-61.2-22.8-91.5-34-30.2-11.2-72.2-26.9-93.2-34.7l-38.3-14.3v-3.4c0-1.8.4-3.3.8-3.3.8 0 104.1 37.9 199.2 73 25.6 9.4 51.2 18.9 57.1 21l10.5 3.8 4.6-10.7c2.5-5.8 4.3-10.9 3.9-11.2-.3-.4-29.2-8.9-64.1-18.9-34.9-10.1-97.2-28.1-138.5-40.1l-75-21.8-39.7 39.7-39.8 39.7-29.2-29.2-29.3-29.2-3.5 2.5c-14.5 10.3-46.5 26.9-65 33.7-40.7 15.1-80.4 21.7-123 20.4-54.3-1.6-103.4-14.2-152.1-38.8-13.7-6.9-36.3-20.5-43-25.9l-3.6-2.9-5.4 5.5-5.3 5.4.3 7.3c1.1 27.9-21.3 50.8-49.9 50.9-14.5 0-26.5-5.4-36.7-16.5-6.4-7.1-9.9-14.1-12-24.3-1.9-9.5-.8-19.5 3.2-28.3 1.4-3 2.4-5.6 2.2-5.7-.3-.3-157.1 12.6-157.3 13-.2.3-19.1 108.1-19 108.3.1.2 163-41 182.5-46.1l9.4-2.5 3.3 2.7c1.8 1.5 3.3 3 3.3 3.3.1.5-63.7 17-164.9 42.5-19 4.8-34.7 8.9-34.9 9-.5.4-20.1 111.7-19.8 112.1.3.2 96.9-40.3 341.8-143.3l60.5-25.4 4.7 1.7c2.6.9 4.7 2 4.7 2.3 0 .4-401 169.5-410.6 173.2l-3.1 1.1-11.3 63.9c-6.2 35.2-11.1 64-10.9 64.2.2.1 39.6-23.2 87.4-51.8 47.9-28.7 117.8-70.5 155.5-93s107.6-64.3 155.4-92.8l86.8-51.9 5.4.7c3 .3 5.4.9 5.4 1.3 0 .3-31.4 19.4-69.8 42.3-68.3 40.8-424.4 253.9-427.1 255.5-.9.6-6.1 28-16.2 84.8-8.1 46.2-14.7 84-14.6 84.1.1.1 42.3-34 93.7-75.7 51.4-41.8 99.8-81 107.4-87.1 14.6-11.8 33.8-27.4 74.6-60.5 42.2-34.2 180.7-146.5 251.4-203.8l43.9-35.5h5.6c5.5 0 5.5 0 3.6 1.9-1.1 1-21.6 17.8-45.5 37.2-23.9 19.4-79.5 64.6-123.5 100.3s-85.9 69.7-93 75.5c-7.2 5.9-19.8 16.1-28 22.8-18.8 15.2-158 128.2-277.2 225-9.1 7.4-15.5 13.3-15.8 14.6-1.9 8.4-36.5 207-36.1 207.4.2.2 50.7-52.6 112.2-117.4C818 2409.5 869.1 2355.8 870 2355c.9-.8 68.5-71.9 150.2-158 179.8-189.5 245.7-258.9 263.9-277.8 13.4-14 13.8-14.3 19-15.1 3-.5 5.5-.8 5.6-.7 0 0-6.7 7.3-15 16.1-8.4 8.8-38.4 40.5-66.7 70.5-53.2 56.2-262.5 276.9-468.2 493.7L641 2608l-26.5 149.7c-14.5 82.4-26.7 151.4-27.1 153.3-.6 3.4-.5 3.3 3.9-2.6 2.4-3.3 66.5-90.6 142.4-194 75.9-103.3 168-228.9 204.8-278.9 36.8-50.1 87.2-118.7 112-152.5 108.8-148.2 234.1-318.5 266.5-362.2 11.8-15.9 12.5-16.7 14.4-15.4 1.2.8 2.1 2 2 2.8-.1 1.5-16 23.6-60.8 84.8-73 99.8-105.9 144.7-207 282.5-60.5 82.5-127.1 173.4-148.1 202-21 28.6-103.3 140.9-183 249.5-79.6 108.6-145.7 198.2-146.7 199-1.8 1.5-1.1 2.5 12.4 19.8l14.3 18.2h786.3l1.2-6.8c4.8-28.1 71.1-403.2 71.5-405 .5-2 2.6.7 12.7 16 57.8 87.7 125.4 159.5 208.8 222.2 195.2 146.5 444.6 203.7 686.5 157.5 123.8-23.6 242.2-74.9 345.5-149.7 40.7-29.5 68-53 107.8-92.8l28.3-28.4 9.6 10.3c192.9 205.4 468.5 304.6 748.3 269.2 132-16.7 259.8-64.5 370.8-138.7 50.4-33.6 88.1-64.7 132.8-109.3 36.2-36.1 58.5-61.7 85.8-98.5 161.9-218.1 212.8-500.2 137.2-760.2-14.9-51.1-30.7-90.5-61.8-154.3-27.3-55.8-42.4-83.4-65.8-119.4-8.7-13.3-9.4-14.1-12.4-14-1.7.1-313.1 25.4-692.1 56.4zm-2433.1 236c4 2.4 4 2.4 1.5 3.3-4.3 1.6-41 10.5-41.4 10-.2-.2-.2-2 .1-4l.6-3.6 15.7-4c8.6-2.2 16.5-4 17.6-4.1 1.1 0 3.8 1.1 5.9 2.4zm368.6 29.8c0 .7.9 10 2 20.7 7.8 74.5 68 682.5 68 686.4-.1 1.7-.7 1.4-4-2.4-2.2-2.5-4.2-5.2-4.4-6-.3-.8-3-26.9-6-58-19-193.8-23.6-241.1-24.1-246-.3-3-6.3-65.1-13.4-138-12.1-123.7-18.6-191.5-22.9-237.7-1.6-17.3-1.6-19.3-.3-19.6 3.2-.9 5.1-.7 5.1.6zm17 21.9c2.5 11.6 29.8 144.6 40 194.8 55.7 273.8 62.4 306.7 97.4 479.5 14.1 69.3 25.8 126.8 26 127.7.3 1.1-1.3.3-4.5-2.4-2.7-2.3-5.2-5.1-5.4-6.2-.3-1.2-5.7-27.8-12.1-59.1-6.3-31.4-18.7-92.6-27.5-136-98.2-485-121.3-600.1-120.5-602.1.3-.7 1.6-1.4 3-1.4 2.1 0 2.6.7 3.6 5.2zm32.3 45.3c18 54.6 31.1 94.3 51.7 157.5 9.4 28.9 21.1 64.6 26 79.5 4.9 14.8 33.7 103.3 64.1 196.5 30.3 93.2 74.2 228 97.4 299.5 23.3 71.5 42.2 130.2 41.9 130.4-.2.2-2.4-.9-5-2.5l-4.6-2.9-42.3-130c-147.7-454-203.2-625.1-230.5-710-7.8-24.2-15.2-47.3-16.5-51.3-1.3-3.9-1.9-7.3-1.4-7.3.5-.1 1.3-.2 1.8-.3.5 0 1.3-.4 1.7-.9.4-.4 1.1-.4 1.5 0 .4.5 6.8 19.2 14.2 41.8zm14.2-19c7.3 16 14.7 32.5 46.4 103.2 64.9 145 87 194.4 264.1 591.3 57.2 128.4 106.3 238.4 109.1 244.4 2.7 6 4.9 11.2 4.9 11.7 0 1.1-8.6-1.9-9.8-3.4-.5-.7-5.1-10.9-10.4-22.7-5.2-11.8-50.4-113.1-100.3-225-152.3-341.6-292.8-657.2-309.5-695.3-7.2-16.7-9.1-23.1-6.1-21.2.5.3 1.3 0 1.6-.6 1.1-1.7 1.9-.4 10 17.6zm-76.9 153.4c-.4 92.7-1.1 239.2-1.6 325.6l-.9 157-2.5 14.5c-5.9 33.4-5.6 36.5-5.1-50.5 2.1-347.9 2.6-429 3.5-515.9.7-72.2 1.2-99.1 2.1-99.6.6-.4 2-.5 3.2-.2l2 .5-.7 168.6zm-41-164.4c.6 1.4-.4 5-25.6 101-26.4 100.1-44.8 169.6-97.9 369.5-43.1 162.3-56.7 213.6-102.2 385-21.4 80.6-39.3 147.2-39.7 148-.5.9-2.4 1.5-4.3 1.5-2.8 0-3.4-.4-3.2-2 .2-1.8 29.1-110.7 109.8-414 14.6-55 35.2-132.2 45.6-171.5 37.7-141.7 96.2-360.6 109.5-409.6 2.6-9.5 2.9-10 5.2-9.6 1.3.3 2.6 1 2.8 1.7zm172.1 20.7c43.3 59.2 167.9 231.2 593.2 818.8 113.7 157.1 116.1 160.5 113.4 161.1-1.6.4-3.6.7-4.5.8-1.6.1-34.3-44.9-308.3-423.9-41.2-56.9-100.6-139.1-132-182.5-58.6-81-228.2-315.9-264.2-366-20-27.7-20.2-28-18.1-29.8 1.1-.9 2.3-1.7 2.7-1.7.4 0 8.4 10.5 17.8 23.2zm-222.2-20.2c4.4 0 7.4-5.7-69 129.5-8.4 14.8-26 46.1-39.2 69.5-13.2 23.4-44.4 78.5-69.3 122.5s-61.7 109-81.8 144.5c-38.3 67.8-174.4 308.2-256.4 453l-48.5 85.5-4.1.3c-2.5.2-4.2-.1-4.2-.7s36.4-65.3 80.9-143.8c44.4-78.6 106.8-188.7 138.6-244.8 31.8-56.1 63.3-111.7 70-123.5 6.7-11.8 39.1-69 72-127 64.6-114.1 67-118.3 134.8-237.6 38.4-67.6 71.2-125.1 73.5-128.9.3-.5.7-.4 1 .3.2.7 1 1.2 1.7 1.2zm186 2.1c6.5 10.2 153.5 262.1 406.2 695.9 137 235.2 174.3 299.3 174.3 299.6 0 .7-7.5.4-8.6-.4-1-.6-97.4-165.8-320.4-549.2-13.9-23.9-42.9-73.7-64.3-110.5-84-144.3-157.7-271.4-187.1-322.4-4.2-7.3-7.5-14-7.2-14.8.3-.8 1-1.2 1.5-.8.5.3 1.2.1 1.6-.5 1-1.5 1.3-1.3 4 3.1zm-113.8 1.3c.6.6-122.8 993.2-124.2 999.4-.5 2-1.1 2.3-4.3 2-3.4-.3-3.7-.5-3.5-3.3.6-6.1 95-758.1 112.7-897 3.6-28.1 7.9-62 9.7-75.5 1.7-13.5 3.2-25 3.4-25.7.3-1 5.2-.9 6.2.1zm-91.6 107.1l-3 7-.1-8.2c0-6.8.5-9.5 2.8-15l2.7-6.7.3 8c.2 6.9-.1 8.8-2.7 14.9zm-26.9 65c-37.9 91-82 196.5-144.7 346-13.6 32.4-28.7 68.4-33.5 80-10.9 26.1-119.9 286.2-132.2 315.5-5 11.8-10.3 24.4-11.8 28-19.9 47.9-24.5 58.6-25.4 59.2-1.5 1.1-7.6 1-7.6 0s6.5-16.8 26-63.2c7.3-17.3 14.3-34 15.5-37 1.2-3 42.8-102.3 92.5-220.5 128.9-307.3 140.6-335.1 156.7-373.5 8-19 18-42.8 22.3-53 7.2-17.3 20.9-49.9 34.7-82.5 3.3-7.7 11.3-26.7 17.9-42.1l11.9-28.2.3 8.2.3 8.1-22.9 55zM2222.3 1658.7c.9.2 2.5.2 3.5 0 .9-.3.1-.5-1.8-.5-1.9 0-2.7.2-1.7.5z"/><path d="M2179 1663.6c-1.9.2-8.4.9-14.5 1.5-128.6 12.8-245 92.1-305.5 208.3-59.7 114.6-58.2 255.2 4.1 367.9 7.9 14.4 26.6 42.5 36.4 54.7 63.1 78.8 151.4 129.7 250 143.9 23 3.3 41.2 4.4 66 3.8 24.9-.6 32.7-1.3 56.5-5.3 103.7-17.2 197.4-77.4 256.9-164.9 65.9-97.1 84.9-217.8 51.9-330.5-38.6-132.2-145.7-235-279.3-268.4-32.2-8-53.6-10.7-90-11.1-15.9-.2-30.6-.1-32.5.1zm70.5 11.8c44.8 5.5 82.7 16.5 122.5 35.8 40.2 19.3 73.7 43.5 105.6 76 59.2 60.3 94.5 133.4 106.1 219.8 1.4 10.6 1.8 20.3 1.8 45.5 0 32.6-.6 40.9-4.6 65-19.3 116.1-93.3 217.9-198.2 273-109.6 57.5-243.8 57.5-353.2.1-35.4-18.6-62.9-38.9-92.1-68.1-43.9-43.7-73.2-90.9-92.4-148.5-13.7-40.9-19.3-75.9-19.3-120 0-43.7 5.5-79.1 18.4-118.8 19.4-59.1 50.4-108.9 95.6-153.3 31.1-30.6 61.2-51.7 100.5-70.8 42.7-20.8 86.8-32.8 135.8-37.1 15-1.3 58.1-.4 73.5 1.4z"/><path d="M2183 1681.6c-130.7 9.4-242.9 81.2-305.1 195.2-44.1 80.9-56 180.3-32.4 270.7 23.3 89.2 78.7 166.2 156 217 87 57.2 194.5 75.3 295.9 49.8 131.6-33 235.3-136.3 268.9-267.8 8.9-34.6 11.2-53.8 11.2-92.5 0-37.9-2.2-57.6-10.1-89.8-26.2-107.1-99.9-198.2-198.9-245.8-39.3-18.9-76.4-29.6-121-35-12.5-1.5-53-2.6-64.5-1.8zm63.5 9.9c84.8 10 156.9 44.7 216.6 104.4 58.6 58.7 92.9 128.6 104.1 212.1 2.9 22 3.2 65 .5 87-11.9 97.5-59.2 182.7-135.2 243.6-54.7 43.7-119.8 70-192 77.5-16.5 1.7-54.3 1.4-72.3-.5-86.8-9.4-164.6-47.3-224.3-109.3-55.5-57.8-88.6-127-99.6-208.3-2.6-19.2-2.6-69.7 0-89 9.5-70.8 35.7-132.2 79.4-185.9 11.2-13.7 40-42.4 52.9-52.7 59.6-47.6 127.5-74.6 202.4-80.4 15.5-1.2 51.5-.4 67.5 1.5z"/><path d="M2179 1699.7c-25.5 2.5-40.8 5-60 9.8-116.3 29.3-210.8 116.7-249.1 230.4-28.6 84.8-24.1 177.4 12.6 259.2 25.1 56 67.6 107.6 117.8 143.2 49.8 35.3 104.5 56.2 167.2 63.9 16.8 2 63.4 1.7 81-.5 69.8-9 132-36 184.8-80.2 36.5-30.6 67.2-69.1 88.2-110.6 18.6-36.7 29.2-70.2 35.6-112.9 2.7-17.4 3.7-60.8 1.9-80.2-14.6-161.4-135.7-291.9-295-318.2-8.5-1.4-20.7-3-27-3.6-10.5-.9-49.6-1.2-58-.3zm65.7 7.8c60.5 7.1 116.3 28.4 163.8 62.6 83.9 60.3 136.3 152.9 144.6 255.3 1.4 18.4.7 54.3-1.5 71.6-8.7 67.3-35.9 129.3-79.1 180.5-11.9 14.1-34.9 36.6-49 47.8-44.8 35.9-99.4 60.7-155.5 70.7-38.3 6.8-85.7 6.8-124 0-60.3-10.8-117.7-38-164.5-78.1-12.7-10.8-35.7-34.5-45.2-46.6-41.7-52.5-65.8-110.5-74.5-179.3-1.7-14-1.7-63 0-77 7.8-61.7 27.6-114 61.5-162.2 33.6-47.7 78.5-86.1 131.2-111.8 34.1-16.7 65.5-26.5 102.6-32 27.9-4.1 61.9-4.7 89.6-1.5z"/><path d="M2182.5 1717.6c-35.3 3.5-57.2 7.9-83.7 16.8-48.1 16.1-90.1 41.7-127.2 77.6-57.2 55.4-92.5 128.7-100.7 209.5-2.6 26.3-.8 66.9 4.2 93.5 24.5 129.2 121 232.4 247.4 264.4 28.5 7.2 52.4 10 84 10 30.9 0 54.7-2.9 83-10 63-16 122.3-51.7 165.8-99.9 70-77.6 100-181.5 82.1-284.9-9.5-55.2-33.3-107.2-70.2-153.6-10.2-12.8-36.2-38.6-49.7-49.4-49.4-39.5-105.4-63.3-169.5-72.1-11-1.5-56.2-2.8-65.5-1.9zm71 7.3c74.7 11.5 138.1 43.9 190 97.2 52.9 54.4 83.5 119.5 92.6 196.9 1.9 15.9 1.6 54.6-.5 72-7.5 63.6-31.4 120.7-71.2 170.5-11 13.7-35.7 38.5-48.9 49.1-39 31.2-79.2 51.6-124.8 63.4-27.5 7.1-46.8 9.8-75.2 10.7-78.8 2.4-155.3-23.1-217-72.3-14.2-11.4-40.7-37.9-51.8-51.9-39.1-49.3-62-104-70.3-168-2.1-16.1-2.4-56.9-.6-73 6.7-58.1 24.6-106.9 56-153 25-36.7 60.7-71 98.4-94.6 27.2-17.1 58.6-30.8 89.3-38.9 18.5-4.9 31.2-7.2 58.5-10.4 1.9-.2 16.6-.3 32.5-.1 23.5.2 31.7.7 43 2.4z"/><path d="M2172 1738.5c-73.2 8.3-138.8 40-190.5 91.9-81.7 82.1-111.7 200.1-79.4 312.1 28.2 97.6 104.9 177.7 201.5 210.3 90.6 30.6 187.8 19.5 269.4-30.6 71-43.6 123.1-116.9 141.5-198.8 5-22.5 6.6-36.3 7.2-62.4.3-15.3.1-29.1-.6-36.5-7.2-74.6-39.2-142.6-91.6-195-49.3-49.3-111.6-80.2-181.6-90-16.1-2.3-59.6-2.8-75.9-1zm-11.9 241.5c18.4 3.4 34.8 20.6 38.1 39.9 2.8 16.4-3 30-30.7 71.8l-18.7 28.3h-12.4c-6.8 0-12.4-.2-12.4-.5s6.3-10 14-21.5 14-21.1 14-21.4c0-.2-3.9-.5-8.7-.8-11.2-.5-18.1-3.5-26.4-11.4-16.3-15.6-19.5-37.2-8.6-59.2 9.4-19.1 30.2-29.2 51.8-25.2zm123.4.1c22.4 4.1 38.5 27 34.6 49-2 11.7-6 18-20.5 32.5-7.2 7.2-18.9 18.5-26.1 25.2l-13 12.2h59.5v21h-88v-20.8l25.8-24.8c14.1-13.6 27.4-26.7 29.5-29 5.4-6.1 10.4-14.9 11.2-19.4 1-6.1-1.7-14-6.6-18.8-4.6-4.7-9.3-6.6-16.4-6.6-13.2 0-21.1 7.9-22.3 22.1l-.5 6.3H2230v-5.3c0-10.1 4-21.3 10.7-29.4 9.5-11.8 26.2-17.3 42.8-14.2zM2064 2051v69h-23v-120h-23v-18h46v69zm328 0v69h-23v-120h-24v-18h47v69z"/><path d="M2141.7 2002.4c-6.7 2.5-11.1 6.1-14.2 11.7-2.7 4.9-3 6.3-3 14.4 0 10.1 1.6 14.5 7.6 20.3 12.2 11.9 33.8 8.5 42.3-6.8 5.4-9.7 3.8-22.7-3.8-31.8-6.6-7.7-19.6-11.3-28.9-7.8zM3455.5 1664.1c-39.4 3.5-82.5 14.2-117.9 29-50.8 21.4-99.8 55.7-135.8 95.3-59 64.7-92.3 139.4-101.9 228.6-1.9 16.9-1.6 59.3.5 77.2 5.6 48.8 17.8 90.9 38.2 132.3 53.4 107.9 153.6 185.4 270.9 209.4 44.8 9.1 92.7 10.5 136.5 4 84.9-12.7 160.4-50.9 220.6-111.5 84.4-85 125.2-205.5 109.9-324.9-16.9-131.4-99.4-245.5-219-302.6-36.5-17.4-76.8-29.3-118.9-35-17.3-2.3-65.8-3.4-83.1-1.8zm77.5 11.4c63 7.5 124.8 31.1 175.7 67.2 25.7 18.2 57.8 48.3 77.1 72.5 45.4 56.9 72.1 121.6 81.4 196.8 2.1 16.6 1.7 70.2-.5 87-11.4 84.7-45.9 157.9-102.7 217.3-42.6 44.5-94.8 77.9-152.4 97.2-41.9 14.1-77.6 19.9-122.6 19.9-44.2 0-78.9-5.5-119.5-18.9-58.5-19.2-109.1-50.7-152.2-94.8-55.8-57.1-91.3-127.1-103.7-204.7-3.6-22.3-4.6-35.5-4.6-61.5s1-39.2 4.6-61.4c10.5-65.2 36-122.8 78.5-177 10.4-13.2 44-47 57.5-57.7 58.7-46.8 128.7-75.6 200.4-82.3 6.3-.6 13.3-1.3 15.5-1.5 9.2-.9 54.8.4 67.5 1.9z"/><path d="M3466 1681.7c-97.6 5.8-191.6 51.7-256.2 125.2-49.8 56.7-80 123.5-90.4 200.1-2.5 18.7-3 63.2-1 82.7 3.9 36.9 11.5 68.2 24.3 100.8 47.8 121 156.2 208.7 284.3 229.9 23.9 4 36.5 5 62 5s38.1-1 62-5c153.6-25.5 275.6-145.5 303.9-298.9 4.7-25.2 5.5-35.7 5.6-68 0-34-1-44.7-6.6-73-30.7-154.7-155.5-273-311.4-295.4-25.2-3.6-52.4-4.8-76.5-3.4zm47 8.3c64.8 4.6 123.3 24.3 176.5 59.4 36.5 24.1 71.9 58.4 97.4 94.4 61.9 87.6 81.5 198.7 53.6 304.7-22 83.9-76.4 159.3-150 208.2-50.4 33.5-105.3 53-167 59.4-16.5 1.7-54.3 1.4-72.3-.5-103-11.1-192.2-62-254.9-145.4-12.9-17.1-23.5-34.6-34.3-56.7-14.8-30.1-23.7-55.9-30-87.5-5.4-26.9-6.4-37.7-6.5-71.5 0-32.7.7-42.2 5.1-66.5 9.2-50.5 26.4-93.1 55-136 13.4-20.1 24.7-34.2 41.4-51.4 55.4-57 123.9-93.4 199.4-106.1 29.9-5 58.2-6.5 86.6-4.5z"/><path d="M3452.1 1700.6c-83 9-156.1 44.1-215.1 103.4-49.8 49.9-83.1 113-96.4 182.5-4.5 23.6-6 40-6 67 0 34.1 3.4 60.7 11.5 91.3 33 124.1 132 221.6 256.4 252.6 44.4 11 92.6 13.5 137.5 7 77.5-11.2 147.2-46.8 202.5-103.5 27.6-28.3 48.7-58 64.9-91.3 57.2-117.6 45.8-256.6-29.7-362-60.7-84.8-154.2-138.3-257.7-147.6-15.7-1.4-52.8-1.1-67.9.6zm58.4 5.4c57.2 3.9 110.3 20.4 158 49.1 78.8 47.4 136 124.6 158 213.2 7.6 30.7 10 51.4 10 85.7-.1 29.2-1.4 43.5-6.6 69.1-19 95.1-78.3 178.7-162.2 229.1-35.6 21.4-75.8 36.4-116.7 43.8-38.1 6.8-85.7 6.8-124 0-130.2-23.2-237.1-120-272.9-247.2-4.8-16.9-8.3-34.2-10.8-52.8-2.5-18.7-2.5-66.7 0-85.5 10.5-78.3 44-147.5 98.1-201.9 28.3-28.5 55.1-48 91.1-66.1 55.4-28 116.9-40.6 178-36.5z"/><path d="M3465.5 1717.7c-30.4 2.5-57.4 7.9-83.8 16.7-111.5 37.3-195.3 130.5-221.2 246.1-25.6 114.2 10.9 234.7 95.4 315.7 53.2 51 119.4 82.1 194.5 91.5 16.5 2.1 57.3 2.3 73.6.4 32.6-3.7 63.8-11.5 92.2-23.2 79.4-32.7 143.1-93.7 178.4-170.9 13.7-30.1 22.3-59.5 27.5-94 2.6-17.3 3.7-57.4 2-75.7-5.4-59.7-25.9-116.3-59.4-163.8-17.1-24.3-42.4-51.4-64.2-68.9-52.1-41.7-113.8-66.7-180.3-73.1-13.7-1.3-43.4-1.8-54.7-.8zm67.5 6.7c38.3 5.5 70.3 15.4 104.2 32.3 20 10 42.4 24.2 59.3 37.8 13.4 10.6 41.1 38.4 51.8 52 39.3 49.6 62.6 105.5 70.3 169 2 16.8 2.3 55.7.5 71.5-6.5 56.8-24.8 107.3-55.1 152-26.7 39.2-63.9 74.6-103.7 98.6-44.4 26.7-93.1 42.3-144.8 46.5-26.7 2.1-61.7.3-88.5-4.7-117.6-21.6-216.1-108.3-253.3-222.9-11.4-35.1-16.1-64.9-16.1-103 0-49.6 9.3-92.9 29.5-137.7 16.9-37.7 39.3-69.3 71-100.4 52.9-51.7 119.9-83.5 193.9-91.9 16.8-1.9 64.8-1.3 81 .9z"/><path d="M3458.5 1738.1c-95.5 9.8-180.2 60.7-233 139.9-27.9 41.9-44.9 88.6-51.1 140-1.9 16.4-2.2 50.8-.5 67 11.7 109.2 76.9 203.7 173.6 251.4 66 32.6 137.7 41.5 209.3 26.1 70.6-15.3 133.9-54.8 179.7-112 30.2-37.7 51.9-83.7 61.9-131.4 5.3-24.8 6.1-33.6 6.1-65.6 0-34.9-1.6-48.5-9-78-5.8-23.2-11.9-39.5-23-62-15.6-31.8-35.3-59.3-60-84-48.7-48.7-110-79.3-179.3-89.6-15.7-2.3-59.3-3.4-74.7-1.8zM3346.9 1981c17.4 3.3 31.4 18.2 34.2 36.5 1.4 8.6 0 16.8-4.3 25.5-3.4 7-12.7 16.9-40.8 43.3l-14.5 13.6 29.8.1h29.7v21h-88V2100.3l12.2-11.9c48.4-47 52.7-51.9 54.3-61.5 1.7-10.2-5.6-21.4-16-24.4-15.6-4.6-27.9 4.3-29.3 21.1l-.5 6.4H3293v-5.3c0-7 2.3-15.7 6.2-22.9 8.5-16.1 28-24.6 47.7-20.8zm114.7.1c8.9 1.6 18.1 6.4 24.5 12.9 11.6 11.6 12.9 17.1 12.9 58.1 0 16.9-.5 33-1 35.9-1.4 7.6-5.1 15.1-10 20.4-25.6 27.7-76.4 15.6-82.9-19.8-1.5-8.1-1.5-66.8 0-73.8 1.7-7.8 5.4-14.5 11.8-20.8 11.3-11.3 27.6-16 44.7-12.9zm122.9.4c12.7 3.4 23 12 28.8 24.2 3 6.3 3.2 7.5 3.2 17.3-.1 18.9-4 24.8-36.8 55.5l-22.5 21 29.9.3 29.9.2v21h-89V2100.3l27.1-25.9c34.5-32.9 39.8-39.7 39.9-50.7.1-18.8-23.3-29.5-37.8-17.2-4.6 4-6.8 8.8-7.8 17.4l-.7 6.1H3528v-3.8c0-6 2.7-16.6 5.6-22.7 8.7-17.7 30.7-27.2 50.9-22zM3685 2052v69h-22v-120h-24v-18h46v69z"/><path d="M3445.9 2002.1c-2.5.4-5.9 1.4-7.5 2.2-3.9 2-9 7.5-10.3 11-.7 1.8-1.1 15.5-1.1 37.6v34.8l2.6 3.8c5.1 7.6 11.5 10.5 22.8 10.5 12.1-.1 19-4.8 22.1-15.2 1.2-4.2 1.5-11.3 1.5-36.7 0-28.6-.2-32-1.9-35.6-2.3-5-5.4-7.9-11.1-10.3-5.5-2.4-11-3.1-17.1-2.1zM799 1712.5c0 .2-4 23.3-9 51.2-4.9 27.9-8.8 50.8-8.7 51 .2.1 36.8-2.8 81.4-6.5l81.1-6.8 4.1-3.6c8.5-7.8 19.7-11.8 33.2-11.8 8.4 0 8.6 0 11.9-3.4l3.3-3.5-7.3-7.8c-10.2-10.9-20.2-22.9-29.3-35.6-4.4-5.9-8.5-10.7-9.2-10.7-.8 0-34.2-2.9-74.2-6.5-73.8-6.6-77.3-6.9-77.3-6zM1089.5 1739.6c21.9 11.9 55.6 23.8 84.7 29.9 27.9 6 68.8 8.2 94.1 5.1 19.6-2.4 47.1-9.6 57.6-15.1 2.6-1.3 1.9-1.5-17.9-3-14.5-1.2-205.6-17.9-218-19l-5.5-.6 5 2.7zM2871 1771.6c-179 2.3-338.5 4.3-354.4 4.3l-28.9.1 6.9 7.3c13.9 14.6 28.6 33 40.1 50.3l6.1 9.1 10.4.6c5.7.3 139.5 7 297.3 14.8 157.9 7.8 287.1 14.3 287.3 14.4.2.2-.5 1.9-1.4 3.9-2.1 4.3 1.3 4.1-37.9 2.1-15.9-.8-142.4-7.1-281-13.9-138.6-6.9-256-12.8-260.8-13.1l-8.9-.7 4.2 7.4c5.9 10.3 18 35.5 22.5 46.8 2.2 5.2 3.9 9.6 4 9.7.1.2 34.3 4.6 76.1 9.8 74.7 9.4 190.9 24 359.6 45.3 47.2 6 86 11.1 86.3 11.4.4.3.2 2.1-.3 3.9-.7 2.8-1.3 3.4-3.3 3.1-1.3-.1-73.9-9.2-161.4-20.2-87.4-11-191.2-24.1-230.5-29.1-79.7-10-116.1-14.7-120.4-15.4-2.3-.4-2.7-.2-2.3 1.3.2.9 2.5 8.7 5 17.2 3.8 13.1 8.7 34.4 11.2 49.2.4 2.6 1.1 3.8 2.2 3.8 1.8 0 494.5 96.9 494.9 97.3.1.1.4 1.9.8 3.9.5 2.7.3 3.8-.5 3.8-.7 0-112.3-21.9-248.1-48.6-135.8-26.7-247.1-48.4-247.3-48.2-.2.1.1 3.7.6 7.8s1.2 18.8 1.6 32.7l.6 25.2 5.1 1.5c2.8.8 28.3 7.6 56.6 15.1 151.4 40.2 460.4 122.6 460.5 122.8 0 .1.9 1.9 1.8 4.1 1 2.1 1.6 4 1.4 4.3-.3.2-42.9-10.9-94.8-24.7-51.9-13.8-169.3-45.1-260.9-69.5-91.6-24.4-167.4-44.5-168.5-44.7-1.8-.3-2.1.4-2.7 9.2-1 13.1-4.5 37-7.2 49-1.2 5.5-2.1 10-2 10 .2 0 406.1 136.7 589.4 198.5 36.5 12.4 67.7 23.4 69.2 24.5 1.5 1.1 2.8 1.9 2.8 1.7 0-.2-5.3-4.6-11.7-9.7-15.3-12.2-46.2-43.1-58.9-59-57.8-72.5-87.4-156.6-87.4-248.5 0-104.3 39.8-202.7 111.4-275.3l11.1-11.2-10 .1c-5.5.1-156.5 2.1-335.5 4.5zM2188.8 2448.7c1.2.2 3 .2 4 0 .9-.3-.1-.5-2.3-.4-2.2 0-3 .2-1.7.4zM3473.8 2448.7c.7.3 1.6.2 1.9-.1.4-.3-.2-.6-1.3-.5-1.1 0-1.4.3-.6.6zM919 3153c-6.9 4.4-12.9 8.1-13.5 8.3-.5.2 5.5 9 13.3 19.5L933 3200h-43v34h44l-2.6 5.2c-6.9 13.7-18.2 29.1-34 46.3l-10.1 11 1.9 5.5c1.1 3 3.5 11.3 5.3 18.4 1.9 7 3.6 13 3.8 13.2.2.2 4.8-4.1 10.1-9.6s9.9-10 10.2-10c.2 0 .4 19.8.4 44v44h32v-50.5c0-27.8.3-50.5.7-50.5.4 0 4.7 3.9 9.5 8.7 7.6 7.6 9 8.5 10.1 7.3.8-.8 5.4-6.2 10.2-11.9l8.9-10.3-5.9-5.4c-3.3-3-11.1-9.8-17.2-15.1-6.2-5.3-11.3-10-11.3-10.3 0-.4 2.3-4.9 5.1-10.1 2.9-5.2 6.7-12.7 8.5-16.7 3.4-7.3 3.4-7.4 3.4-22.3V3200h-37.3l13.4-9.1c7.4-5 13.5-9.2 13.6-9.3 1-.9-28.5-36.6-30.2-36.5-.5 0-6.6 3.6-13.5 7.9zM3137.3 3153.8c-9 4.3-16.3 8.2-16.3 8.8 0 .5 1.4 3.2 3.1 6 5.8 9 12.9 21.8 12.9 23.1 0 1-10.3 1.3-52.5 1.3H3032v33h240v-33l-55.2-.2-55.3-.3 8.3-4.3c4.5-2.3 8.2-4.7 8.2-5.2 0-3.5-21.7-37.2-23.8-36.9-.4 0-8 3.5-16.9 7.7zM2224.5 3150.2c-9.9 1.6-18.1 3.1-18.2 3.2-.2.1 1.2 4 3.1 8.7 1.8 4.6 3.7 9.4 4 10.6l.7 2.3H2110v32h34c18.7 0 34 .3 34 .8 0 .4-5.8 4.2-13 8.5l-13 7.8 12.5 14.8c6.9 8.1 12.5 15.1 12.5 15.5 0 .3-11 .6-24.5.6H2128v18.7c-.1 36-5.1 58.5-19.6 88l-7.4 15.1 13.2 13.1 13.3 13.1 1.8-2.3c2.9-3.7 16.5-31.6 19.8-40.7 7.2-20 11.9-44.9 11.9-63.6v-9.4h189v-32h-61.2l7.3-8.1c4.1-4.5 10.2-11.5 13.7-15.5l6.2-7.2-16.7-8.4-16.8-8.3 35.8-.3 35.7-.2v-32h-100l-1.1-2.8c-.6-1.5-2.3-7.7-3.9-13.7-2.3-8.8-3.2-11-4.7-11.2-1 0-9.9 1.2-19.8 2.9zm54.5 57.6c0 1.3-15.9 25-24.6 36.7l-7.8 10.5h-21.3c-11.7 0-21.3-.2-21.3-.5 0-.2 2.7-1.9 6-3.7 5.7-3.2 7.2-5 5-6.3-.6-.4-6.6-7.4-13.3-15.7-6.7-8.3-13.2-16.3-14.4-17.7-1.2-1.4-2.2-2.9-2.3-3.4 0-.4 21.2-.7 47-.7 25.9 0 47 .4 47 .8zM4160.7 3164.2c-12.8 26-24.8 42.8-42.7 60.2l-9.9 9.6 11.7 16 11.7 15.9 6.5-6.4c3.6-3.6 6.9-6.5 7.3-6.5.4 0 .7 14.2.7 31.5v31.5h-36v32h122v54h39v-54h90v-32h-90v-41h73v-32h-73v-36h83v-32h-155l2.4-4.8c1.3-2.6 3.5-7.4 4.9-10.8l2.4-6.1-17.1-2.7c-9.4-1.5-18.3-3-19.7-3.3-2.5-.5-3 .3-11.2 16.9zm71.3 60.8v18h-38.5c-21.2 0-38.5-.3-38.5-.6s2.7-3.8 6.1-7.7c3.3-4 9.2-11.8 13-17.5l7-10.2h50.9v18zm0 70.5v20.5h-49v-41h49v20.5zM714 3152.8c-10.7 2.5-19.7 4.7-19.9 4.8-.2.2.6 2.7 1.9 5.5 1.2 2.9 2.8 7.2 3.5 9.6l1.3 4.3h-98.6l-.5 60.2c-.5 63.4-1 72.9-5.7 97.3-2.6 13.4-7.8 29.7-12.4 38.8l-3.4 6.7 14 12.1c7.7 6.6 14.5 12.3 15.3 12.5 3.1 1.2 12-19.2 17.1-39.3 7.2-28.4 9.4-55.1 9.4-114.1V3209h197v-32h-86.8l-3.6-9.3c-2-5-4.3-11.6-5.1-14.5-.9-2.8-2.1-5.1-2.8-5.1-.7.1-10 2.2-20.7 4.7zM1304 3171v23h-97v145h38v-18h59v82h39v-82h59v18h38v-145l-48.2-.2-48.3-.3-.3-22.8-.2-22.7h-39v23zm0 86v28h-59v-56h59v28zm98 0v28h-59v-56h59v28zM2520 3171.5v23.5h-18.6c-10.7 0-18.3-.4-18-.9.3-.5 3.7-3.3 7.6-6.2l7-5.4-16.2-16.2c-9.7-9.8-16.6-15.9-17.2-15.4-5.6 4.1-22.6 18.4-22.6 18.9 0 .4 4.8 6.1 10.6 12.7l10.5 12-22.5.3-22.6.2v54h31v-25h176v25h32v-54h-22c-12.1 0-22-.3-22-.7 0-.4 5.7-6.5 12.6-13.4l12.6-12.6-12.8-10.2-12.7-10.1-16.8 17.2-16.8 17.3 5.9 5.5c3.3 3 6 5.8 6 6.2 0 .5-8.1.8-18 .8h-18v-47h-35v23.5zM1853 3171.5v22.5h-49v33h49v58h-57v33h254v-33h-57v-58h49v-33h-49v-45h-37v45h-66v-45h-37v22.5zm103 84.5v29h-66v-58h66v29zM2858.4 3170.5l.7 21.5h-121.9l-.5 59.2c-.4 48.1-.7 61.3-2.1 69.7-3.7 23.6-9.5 41.5-17.6 53.7l-2 3.1 4.2 2.9c2.3 1.6 9.4 7.1 15.7 12.2 8.8 7.3 11.6 9.1 12.3 8 2.2-3.1 8.7-17.9 11.1-25.3 6.7-20.4 11-47 12.3-75.8l.7-15.7h37.7l-.1 3.2c-.2 17.9-1.8 35.7-3.3 38.6-2.8 5.4-6.8 7.2-16.1 7.2-4.4-.1-10-.5-12.3-.9-4.4-.9-4.4-.9-3.8 1.8.3 1.4 1.6 10 2.8 18.9l2.2 16.4 17.1-.4c19.9-.6 23.9-1.6 31.6-8.5 5.7-5.2 10.2-13.3 12.4-22.5 1.6-6.5 3.9-37.4 5.1-67.7l.7-17.1H2771v-30h88.8l.6 9.7c2.5 36.3 5.9 65.2 10.1 85.2 1.6 7.5 2.1 11.9 1.5 13.1-2 3.8-28.4 28-39.1 35.9l-11.4 8.5 13.3 13.3c8 7.9 13.9 13 14.5 12.6 3.5-2 21.3-16.9 28.8-24.1l8.7-8.2 4.5 6.3c13.6 19.1 32.9 29.1 48.8 25.3 7.5-1.7 14.3-5.8 17.9-10.7 5.6-7.8 12.8-30.4 15-47.3.7-4.7 1-9 .8-9.5-.1-.5-7.4-4.5-16-8.8l-15.7-7.9-.5 4c-4 34.7-6.5 43.6-12 43.6-4.2 0-7.8-4.1-12.9-14.8l-4.9-10.4 2-2.7c5.1-6.9 16.8-24.9 23.2-35.7 7.1-11.8 26.4-49.3 25.8-49.9-1-1-29.2-14.5-30.2-14.5-.6.1-4.2 6.7-8.1 14.8-7.1 14.8-19.6 37.5-22 40.1-1.2 1.2-1.5 1.1-1.9-1-1.2-5.1-3.7-34.2-4.3-50.2l-.6-16.7H2970v-31h-14.2c-16.3 0-16.2 0-3.4-6.9l8.4-4.6-12.4-15.5c-6.8-8.5-12.7-15.4-13.2-15.3-.5.1-6.8 3.4-14.1 7.4l-13.3 7.2 4.9 5.1c6.6 6.8 17.3 20.2 17.3 21.5 0 .8-5.3 1.1-17.7.9l-17.8-.3-.3-21.3-.2-21.2h-36.3l.7 21.5zM1498 3279.5V3400h37v-9h162v8h36v-240h-235v120.5zm198.8-3.8l-.3 85.8-80.7.3-80.8.2v-172h162l-.2 85.7z"/><path d="M1544 3221v15h51v18h-47v30h47v33h-53v30h147v-30h-9c-4.9 0-9-.3-8.9-.8 0-.4 3-3.2 6.6-6.2l6.7-5.4-11-10.3-10.9-10.3h19.5v-30h-52v-18h55v-30h-141v15zm104 66.3c-2 1.7-5.3 4.7-7.4 6.5l-3.9 3.4 5.9 6.1c3.3 3.4 7.5 7.9 9.4 9.9l3.4 3.8H1630v-33h10.8l10.7.1-3.5 3.2zM3837 3217.2c0 73.5-1.3 96.8-6.6 119.8-3.2 14-9.3 29.6-15.6 39.8l-2 3.3 2.2 1.6c4.9 3.4 21.6 17.1 23.4 19.1 1.1 1.2 2.4 2.2 3.1 2.2 1.5 0 8.7-12.6 13.1-23 6.2-14.8 10.2-30.8 13.6-55 1.8-13 2.1-20.8 2.5-75.3l.5-60.7h58.8v18h-44v24h44v18h-51v25h136v-25h-51v-18h46v-24h-46v-18h59v82c0 89.6.2 86-5.7 92.2-4.4 4.6-7.8 5.1-27.3 4.4l-17.7-.8 3.5 16.1 3.6 16.1h17c36.7-.1 47.9-3.9 55.6-18.9 5.6-11.1 5.4-6.8 5.8-118.4l.3-102.7H3837v58.2zM989 3225.5v63.5h25l-.6 4.2c-4.6 33.1-13.6 53.6-29.8 68.5-5.4 4.9-16.4 12.4-20 13.6-.9.3 18.5 25.9 21.6 28.5 3.5 2.9 28.9-19.5 38.3-33.8 12.3-18.9 19.5-41.1 22.6-69.8l1.2-11.2h17.6l.3 44.2.3 44.3 3.1 6.6c3.5 7.2 7.4 10.9 14.3 13.4 6.2 2.1 32.7 2.1 40.1-.1 7.2-2.1 14.9-9.7 17.8-17.7 2.6-7 6-25.2 6.9-36.7l.6-8.6-12.9-4.6c-7.1-2.6-13.6-4.9-14.4-5.3-1.4-.5-1.8 1.7-2.9 15.2-1.6 20-2.3 23.8-5.1 26.9-3.3 3.4-9.7 3.4-13.1-.2l-2.4-2.6-.3-37.4-.3-37.4h35.1v-127H989v63.5zm110 .5v32h-77v-64h77v32zM3492.7 3177c-25.6 6.5-45.8 26.1-51.4 49.9-2.1 8.7-3.1 86.9-1.4 103.4 1.4 12.8 4.6 23.7 9.1 30.7 5.6 8.7 18.1 19.5 28.4 24.5 12.5 6.1 20.4 7.8 35.1 7.8 14.4-.1 24-2.3 36.5-8.5 11.2-5.4 23.9-17.9 28.8-28.1 6.6-13.8 6.7-14.5 6.7-72.2 0-57.9.1-57.4-7.1-72.5-2.8-5.9-5.3-9.2-12.2-16-9.4-9.3-17.5-14.1-29.7-18-10.2-3.3-31.9-3.8-42.8-1zm36.5 35.7c7.9 3.8 12.1 7.3 15.6 13.2l2.7 4.6.3 48.5c.2 34.8 0 50.1-.9 54-2.4 11.3-8.1 18.9-17.4 23.2-4.3 2-6.6 2.3-17 2.3-10.9 0-12.5-.2-17.6-2.6-6.9-3.3-13.3-8.9-16.2-14.3-2.2-4.1-2.2-4.6-2.2-57.1v-53l3-5.3c3.3-6.1 6.7-9.3 13.6-12.8 7.1-3.6 11.4-4.4 21.1-4 7.1.3 9.8.9 15 3.3zM3675.4 3176.4c-21 4.8-39.7 19.1-48.4 37.1-6.7 13.8-7.2 19.1-6.8 74.8.4 45.5.5 48.6 2.5 55.9 5.2 18.6 16.6 32 35.2 41.3 11.3 5.7 20.5 7.7 35.1 7.7 19.4 0 35.2-5.2 48.5-15.9 13.2-10.7 20.4-23.5 23-41 1.8-11.8 2.1-88.4.5-101-2.3-17.2-7.5-27.9-19-39.3-8.9-8.8-15.8-13.1-27.7-17.3-7.9-2.7-10.2-3.1-22.8-3.3-9.4-.3-16 .1-20.1 1zm27.9 34.1c10.8 2.8 18.5 8.5 23 17 2.1 3.9 2.2 5.1 2.5 51 .2 32.7 0 48.8-.8 53-2.4 12.5-8.1 20.3-17.9 24.8-3.8 1.7-6.6 2.1-16.6 2.1-11.4.1-12.3 0-18.5-3-7.6-3.7-13.4-9.1-16.4-15.4-2-4.3-2.1-6.3-2.4-46.5-.4-48.5.4-61.4 4.2-67.9 7.8-13.3 25.7-19.6 42.9-15.1zM3324 3193.5v15.5h36v181h36v-212h-72v15.5zM716.7 3226.7c-.4 3.2-.9 9.5-1.3 14l-.7 8.3H644v34h67l-.6 3.2c-.3 1.8-2.1 7.7-3.9 13.1-9.4 28.1-32.7 51.9-67.7 69.2l-10.7 5.2 4.6 4.4c2.4 2.4 7.9 8.9 12 14.4 4.2 5.5 8 10.2 8.4 10.3 1.3.5 14.8-7 25.9-14.4 25.8-17.1 43.3-37.7 51.4-60.3l3.3-9.3 3.2 7.4c13.6 30.5 37.1 56.2 65.1 71.2 4.7 2.5 9 4.6 9.6 4.6.6 0 2.6-2.1 4.5-4.8 1.8-2.6 7.5-9.7 12.5-15.8l9.2-11.1-8.4-3.3c-29.2-11.3-52.6-32-66.1-58.6-4.1-8-10.3-23-10.3-25 0-.2 17.3-.4 38.5-.4H830v-34h-80l.1-4.8c0-2.6.4-8.9.7-14l.7-9.2h-34.2l-.6 5.7zM3211 3231.1c0 1.8-22.4 57.6-31.4 78.2-4.7 10.6-11.8 26.4-16 35l-7.5 15.7H3024v32h255v-32h-41c-33.7 0-41-.2-41-1.3 0-.8 4-9.7 8.9-19.8 14.8-30.8 43-95.4 42-96.3-.6-.4-35.4-12.6-36.2-12.6-.4 0-.7.5-.7 1.1z"/><path d="M3072 3237.4c-11.7 4.4-16.4 6.7-16.2 7.7.2.8 3.5 8.8 7.4 17.8 11.7 27.4 34.8 87.8 34.8 91 0 .6 35.6-12.3 36.7-13.3 1.2-1.1-44.1-109.7-45.7-109.6-.3.1-7.9 2.9-17 6.4zM2455 3284.5v43.5h16.5c11.4 0 16.5.3 16.5 1.1 0 .6-1.4 3.8-3.2 7-3.7 7.1-13.8 16.9-22.7 22-8.2 4.8-25.4 10.5-38.3 12.6-5.6.9-10.4 1.8-10.6 1.9-.2.1 1.9 4 4.5 8.6s6.1 11.6 7.7 15.6c2.5 6.1 3.2 7.1 5 6.7 1.2-.2 5.9-1.2 10.6-2.1 9.5-1.8 25.8-7.3 33.4-11.1 23.2-11.7 42.2-34.6 48.6-58.4l1.1-3.9H2547.8l.3 24.2c.4 24.2.4 24.3 3.2 29.9 3.3 6.7 8 10.3 16.7 12.5 5 1.3 11.6 1.5 36.8 1.2l30.7-.3 5.7-2.8c10.9-5.4 16.3-14 21.3-34.2 4.7-18.9 4.8-19.5 2.7-20.2-.9-.3-7.7-2.9-15-5.8-8.6-3.4-13.5-4.9-13.7-4.2-.8 2.5-2.6 12.6-3.5 20-1.2 10-3.9 16.1-8.2 18.7-2.9 1.8-5 2-18.6 2-23.2 0-23.2 0-23.2-24.5V3328h37v-87h-165v43.5zm129 1v15.5h-95v-31h95v15.5zM3892 3331v41h32v-13h79v-69h-111v41zm77.5-6v10.5h-45l-.3-9.4c-.1-5.2 0-10.1.2-10.8.5-1.1 4.9-1.3 22.8-1.1l22.3.3v10.5zM1953.5 3335.7l-10.6 12.6 5.3 3c14.8 8.5 46.5 27.8 61.8 37.6 9.5 6.1 17.6 10.9 18.1 10.6.5-.3 5.9-6.5 12-13.7l11.1-13.2-3.7-2c-2.1-1.2-11.2-6.5-20.4-12-25.3-15-61.3-35.6-62.2-35.6-.5 0-5.6 5.7-11.4 12.7zM1867.5 3331.6c-15.3 10.5-39.2 24.7-57 33.9-8.2 4.3-15.2 8-15.4 8.1-.2.2 1.3 2.2 3.3 4.5 4 4.4 15.6 21.5 15.6 23 0 .5.5.9 1.2.9 2 0 76.9-43.4 86.8-50.3 1.7-1.2 1-2.2-10.2-14.5-6.6-7.3-12.3-13.2-12.6-13.2-.4 0-5.6 3.4-11.7 7.6zM2810.7 3516.6c-2.9.9-6.4 3.1-9.1 5.7-5.1 4.9-6.6 10.1-6.6 22.7v8h-14v19h14v74h24v-74h19v-19h-19v-5.5c0-3.1.6-7.1 1.4-9 1.8-4.3 6.7-5.8 14.6-4.6 3 .5 5.6.8 5.6.7.8-.8 3.2-16.2 2.7-16.7-3-2.8-24.8-3.7-32.6-1.3zM4303.7 3516.6c-3.1 1-6.4 3-9.2 5.8-5 5.1-6.5 10.2-6.5 22.6v8h-14v19h14v74h24v-74h19v-19h-19v-5.5c0-3.1.6-7.1 1.4-9 1.8-4.3 6.7-5.8 14.6-4.6 3 .5 5.6.8 5.6.7.8-.8 3.2-16.2 2.7-16.7-3-2.8-24.8-3.7-32.6-1.3zM1014.6 3520.7c-4.9 9.7-16 19.6-28.8 25.9l-5.8 2.8v10.9c0 10.8 0 10.8 2.3 10.1 4.6-1.4 16.4-7.7 21.1-11.2 2.7-2 5.7-4.3 6.7-5.1 1.8-1.3 1.9 0 1.9 45.3v46.6h24v-130h-19l-2.4 4.7zM1113.5 3517.2c-16.1 2.1-26.8 13.5-31.9 33.9-3.9 15.7-3.9 48 0 63.7 4.8 19.5 15.5 30.4 32.6 33.2 11.7 1.8 23.1-1.3 31.6-8.6 5.3-4.5 11.6-17.1 14-27.9 2.5-11.5 2.4-46.6-.1-58-1.9-8.8-6.1-18.6-10.3-24.1-7.3-9.6-20.9-14.2-35.9-12.2zm14.9 22.8c4.6 4.1 6.4 9.9 7.7 25 1.2 13.1.6 37.2-1.2 46.3-2.1 11.1-6.9 16.7-14.4 16.7-12.1 0-16.5-12-16.5-45 0-34.2 4.3-46 16.7-46 3.3 0 5 .7 7.7 3zM1219.3 3517.1c-23.6 2.9-35.3 24.8-35.3 65.9 0 44.4 13.4 65.2 42 65.2 19.5 0 31.9-10.5 37.9-32 4.5-16.3 5-43.4 1-62.5-5.5-27-21.1-39.6-45.6-36.6zm12.8 21.5c4.2 2.1 7.6 10 9 20.5.7 5.1 1 16.4.6 29.4-.4 17.8-.8 22-2.6 27.7-2.7 8.5-6.5 11.8-13.3 11.8-7.8 0-12.7-5.8-14.6-17.6-2.8-16.4-2.1-50.8 1.3-62.1 2.9-9.7 11.5-14 19.6-9.7zM578 3527.5v10.5h39v108h26v-108h38v-21H578v10.5zM703 3581.5v64.5h23.8l.4-30.3c.3-28.2.4-30.5 2.4-34.7 1.2-2.5 3.5-5.8 5.3-7.3 6.2-5.2 17-5.9 22.7-1.5 5.1 4.1 5.4 6 5.4 41.3v32.5h25v-31.8c0-17.4-.5-34.6-1-38.1-2.8-16.7-13.2-25.1-31.1-25.1-8.7 0-16.2 2.7-23.4 8.6l-5.5 4.5V3517h-24v64.5zM1360 3581.5v64.5h23.9l.3-30.3c.3-28.2.4-30.5 2.4-34.7 1.2-2.5 3.5-5.8 5.3-7.3 9.3-7.8 24.3-4.9 27.1 5.1.6 2.2 1 16.9 1 35.4v31.8h25.2l-.5-35.8c-.3-23-.8-37-1.6-39.4-2.2-7.1-7.2-13-13.5-16.3-5.5-2.8-6.7-3-16.5-3-11.9 0-15.4 1.2-24.3 8.7l-4.8 3.9V3517h-24v64.5zM1535.7 3580.7c-13.6 35.1-24.7 64.1-24.7 64.5 0 .5 6 .8 13.4.8h13.4l1.6-4.6c.8-2.5 3.2-9 5.2-14.5l3.6-9.9h52.3l5.5 14.5 5.5 14.5h13.8c7.5 0 13.7-.3 13.7-.8 0-.4-11.4-29.3-25.4-64.2l-25.4-63.5-13.8-.3-13.9-.2-24.8 63.7zm47.4-10c4.6 12.4 8.6 23 8.7 23.5.2.4-7.7.8-17.6.8h-17.9l8.5-23.5c4.7-12.9 8.8-23.5 9.2-23.5.4 0 4.5 10.2 9.1 22.7zM1889 3528.5v11.5h25v-23h-25v11.5zM2977 3581.5v64.5h23.9l.3-30.3c.3-28.2.4-30.5 2.4-34.7 1.2-2.5 3.5-5.8 5.3-7.3 9.3-7.8 24.3-4.9 27.1 5.1.6 2.2 1 16.9 1 35.4v31.8h25.2l-.5-35.8c-.3-23.3-.8-37-1.6-39.4-2.2-7.1-7.2-13-13.4-16.2-4.8-2.5-7.4-3.1-14.5-3.4-10.7-.5-17.7 1.8-25.8 8.4l-5.4 4.4v-47h-24v64.5zM3253 3581.5v64.5h25v-55h55v-21l-27.2-.2-27.3-.3v-31l31.3-.3 31.2-.2v-21h-88v64.5zM3775 3540.1v23l-4.2-3.4c-8.6-7-12.2-8.2-23.8-8.2-12.5 0-17.1 1.7-25.1 9.2-8.6 8-12.5 17.9-13.6 34.3-1.4 22.8 7.3 41.6 23.1 49.7 4 2.1 6.9 2.7 13.6 3.1 11.3.5 17.8-1.8 26-9.5l6-5.5v13.2h22v-129h-24v23.1zm-13.5 30.8c4.9 2.2 9.8 7.6 11.6 12.8.9 2.4 1.4 8.3 1.4 15.8 0 11.2-.2 12.4-2.9 17.8-8.4 17.2-30.3 15.3-36.8-3.2-.8-2.1-1.3-8.5-1.3-15.6 0-10.4.3-12.6 2.2-16.6 5.4-10.9 16-15.5 25.8-11zM3829 3528.5v11.5h24v-23h-24v11.5zM1308 3526.9l-11.5 6.7-.3 9.7-.3 9.7H1284v19h12v28c0 17 .4 30 1.1 33.2 1.4 6.4 6.5 12 12.4 13.7 5.2 1.4 19.9 1.3 25-.3l4-1.2-.2-7.5c-.4-11-.8-12.1-3.9-10.9-4.4 1.7-9.9 1.2-12-1.1-1.7-1.9-1.9-4.2-2.2-28l-.3-25.9h17.1v-19h-17l-.2-16.4-.3-16.4-11.5 6.7zM2925 3526.9l-11.5 6.7-.3 9.7-.3 9.7H2901v19h12v28c0 16.5.4 30 1.1 33 1.4 6.6 5.5 11.3 11.6 13.4 5.6 1.9 19.9 2 25.8.2l4-1.2-.2-7.5c-.4-11-.8-12.1-3.9-10.9-4.4 1.7-9.9 1.2-12-1.1-1.7-1.9-1.9-4.2-2.2-28l-.3-25.9h17.1v-19h-17l-.2-16.4-.3-16.4-11.5 6.7zM839.5 3553c-11.7 3.9-21.2 13.8-25.7 26.9-2 5.7-2.3 8.5-2.2 20.6.1 15.9 1.6 21.9 8 31.2 8.3 12.1 20.1 16.9 39.5 16.1 9.1-.3 11.2-.7 17.1-3.5 8.1-3.8 13.8-9.3 17.7-17.2l3.1-6-2.8-.5c-6.6-1.3-21.4-3.7-21.6-3.4-4.2 9.6-8.4 12.8-16.4 12.8-10.5 0-18.5-7.7-19.9-18.9l-.6-5.1H898v-6c0-3.4-.7-9.6-1.6-13.8-3.2-15.6-9.8-24.8-22-30.9-7-3.4-8.2-3.7-18.2-4-8.6-.2-11.9.1-16.7 1.7zm22.2 17.5c2.1.9 4.6 2.3 5.6 3.3 2.9 2.5 5.7 8.6 6.4 13.7l.6 4.5h-19.2c-21.7 0-20.4.7-17.6-8.8 3.3-11.2 14.2-16.8 24.2-12.7zM1702 3551.9c-5.1 1.6-11.4 5.4-16.1 9.8l-4.9 4.6V3553h-22v93h23.8l.4-30.8c.3-29.4.4-30.9 2.5-34.8 7-13.1 22.5-15.1 30.7-4 2 2.6 2.1 4.2 2.4 36.2l.3 33.4h24.9v-31.8c0-33.5-.8-42.9-3.9-49.1-4.6-8.9-15-14.2-27.9-14-4.2 0-8.8.4-10.2.8zM1813.7 3553.4c-5.8 2.4-14.4 8.7-15.4 11.2-1.2 3.3-2.3.9-2.3-5.1v-6.5h-22v93h24v-25.3c0-29.7.9-37.6 4.8-43.1 5.4-7.8 17.9-10.8 24.9-5.8 6.4 4.5 6.7 6.2 7.1 41.9l.4 32.3h23.9l-.3-36.8c-.4-40.8-.7-42.7-7.3-49.5-5.6-5.7-11.6-8-22.5-8.4-8.3-.3-10.2-.1-15.3 2.1zM2072.3 3552.5c-13.8 4.3-24.6 16.7-28.3 32.5-1.7 7.1-1.7 23-.1 30 4.1 17.2 15.3 28.7 31.2 32.1 2.8.6 9.9.9 15.8.7 12.6-.4 19.1-2.9 26.9-10.2 4.5-4.2 11.1-15 10-16.2-.6-.5-23.1-4.5-23.3-4.1-.1.1-1.3 2.1-2.6 4.5-3.5 6.4-7.5 8.5-15.4 8-5.3-.3-7.1-.9-10.2-3.5-4.5-3.6-8.1-10.3-8.5-15.8l-.3-4 31.3-.3 31.2-.2v-3.8c0-2-.5-6.9-1-10.7-3.8-26.6-19-40.6-43.9-40.4-4.7 0-10.5.6-12.8 1.4zm19.7 17.5c4.1 1.1 10.2 7.1 11.8 11.5.6 1.6 1.3 4.7 1.6 6.7l.5 3.8H2068v-2.8c0-7.9 4.6-15.2 11.5-18.3 4.6-2.1 7.5-2.3 12.5-.9zM2188.8 3553.1c-2.1 1.1-5.5 4.2-7.5 7l-3.8 5-.3-6-.3-6.1H2154v93h24v-16.3c.1-26.5 1.5-41.9 4.4-48.2 1.7-3.8 3.4-5.9 5.8-7.1 4.1-2.1 10.5-2.1 14.8.1 1.8.9 3.6 1.3 4 .8.3-.4 2.2-5 4-10.2 3.1-9 3.2-9.5 1.4-10.8-5.1-3.7-17.7-4.4-23.6-1.2zM2248 3552.4c-13 3.6-21.1 11.9-22.6 23-1.4 10.2 2.4 19.2 10.5 24.7 5 3.3 15 6.7 32 10.9 6.9 1.6 13.3 3.8 14.3 4.7 1.1.9 1.8 3 1.8 5 0 6.4-6.7 10.3-17.8 10.3-9.1 0-17-4.8-19.3-11.7-.8-2.7-1.5-3.2-3.2-2.8-1.2.3-6.4 1.1-11.6 1.9-5.1.8-9.6 1.7-9.8 2-1.3 1.2 3.1 9.9 7.3 14.5 5.1 5.7 13.7 10.4 22.1 12.1 9 1.9 29.5.8 36.4-1.9 7.2-2.8 14.3-8.9 17.7-15.5 2.2-4.2 2.6-6.4 2.7-12.6 0-15.9-7.7-22.3-34.7-29-23.3-5.8-26.1-7.2-25.6-12.4s4.5-7.1 15.1-7.1c10.5 0 14.4 1.6 17.4 7.2 1 1.8 2.4 3.3 3.3 3.3 2.8-.1 20-3.7 20.7-4.3 1-1.1-2.9-8.9-6.6-13-4.1-4.6-10.6-8-17.9-9.6-6.9-1.4-26.5-1.3-32.2.3zM2355.1 3552.5c-9.6 2.7-16 8-20.5 17.1-2.3 4.5-3.2 7.4-2.3 7.4.1 0 4.9.9 10.7 2 6 1.2 10.6 1.6 10.8 1.1.2-.5 1.6-2.8 3.2-5 3.2-4.3 7.5-6.1 14.5-6 10.2.2 15.2 4 15.7 11.9.3 4.4.2 4.5-3.7 5.8-2.2.7-10.2 2.7-17.7 4.3-7.5 1.6-16.2 3.8-19.4 5-21.6 8.1-23.5 38.1-3 48.6 4.1 2.2 6.9 2.7 14.3 3.1 11.1.5 17-1.1 25.5-6.9 3.2-2.1 5.9-3.9 6.2-3.9.2 0 .9 2 1.6 4.5l1.3 4.5h11.8c6.6 0 11.9-.1 11.9-.3 0-.1-1-3.1-2.2-6.7-1.9-5.9-2.2-9.5-2.7-38-.7-35.4-.9-36.1-8.1-42.3-6.7-5.7-11.4-6.9-28-7.3-10.8-.3-15.9 0-19.9 1.1zm32.4 57.9c-1 11-3.3 15-11.2 19-4.2 2.1-12.7 2.1-16.3 0-7.5-4.5-8.4-15.5-1.6-19.9 2.7-1.8 27.6-8.4 28.9-7.7.5.2.6 4.1.2 8.6zM2474.8 3553.1c-2.1 1.1-5.5 4.2-7.5 7l-3.8 5-.3-6-.3-6.1H2440v93H2463.7l.6-26.8c.6-27.4 1.6-35.1 5.3-40.8 3.6-5.5 12.8-7.3 19.4-3.9 1.8.9 3.6 1.3 4 .8.3-.4 2.2-5 4-10.2 3.1-9 3.2-9.5 1.4-10.8-5.1-3.7-17.7-4.4-23.6-1.2zM2704.8 3552.5c-16.8 4.6-29.3 18-32.8 35.2-1.5 7.2-.8 23 1.4 30 2.6 8.1 9.2 17.1 16.1 21.8 8.5 5.8 15.1 7.7 27.8 8.3 9.2.4 11.8.1 17.5-1.7 13.1-4.3 24.3-15 29.2-27.8 2.8-7.3 3.8-23 2-31.1-3.7-16.9-16.6-30.4-33.3-34.8-6.4-1.7-21.6-1.7-27.9.1zm24.4 20.6c8.2 4.2 12.8 13.6 12.8 26.4 0 10.7-2.2 17.1-8 22.6-6 5.9-12.3 7.7-20.2 5.9-7.1-1.7-14-8.6-16.2-16.1-2-6.6-2.1-18-.1-24.5 4.2-14.2 18.8-20.8 31.7-14.3zM3113.9 3552.8c-18.5 6.2-28.8 22.9-28.9 46.9 0 11.3 1.3 17.9 5.2 26.2 3.9 8.2 10.2 14.4 18.6 18.4 6.5 3.1 7 3.2 20.7 3.2 13.6 0 14.2-.1 20.7-3.2 8.1-3.8 13.8-9.3 17.7-17.2l3.1-6-2.8-.5c-6.6-1.3-21.4-3.7-21.6-3.4-4.2 9.6-8.4 12.8-16.4 12.8-10.5 0-18.5-7.7-19.9-18.9l-.6-5.1h62.6l-.6-9.3c-.7-10.7-2.7-17.9-6.9-26-3.9-7.2-9.2-12.1-17.6-16-5.8-2.7-7.8-3.1-17.1-3.4-8.3-.2-11.8.1-16.2 1.5zm25.3 19.7c4.4 2.9 7.3 8.1 8.3 14.8l.7 4.7h-38.4l.7-4.8c2.2-15.2 16.7-22.6 28.7-14.7zM3394.9 3552.9c-22 7-34 25.4-32.6 49.6 1.2 21.9 11 36 29.5 42.8 8.7 3.2 25 3.6 34 .8 15.1-4.5 27.7-18.3 31.2-33.8 1.9-8.2 1.4-22.2-1-29.4-5.3-15.7-17.7-27.3-33.1-30.8-7-1.7-21.7-1.2-28 .8zm23.7 19.2c3.5 1.3 9.4 6.9 11.7 11.3 1.9 3.6 2.2 5.7 2.2 16.1 0 9.8-.3 12.6-1.9 15.5-9.8 18.5-32.8 18-41.3-.9-1.2-2.6-1.7-6.6-1.7-14.1-.1-9.7.1-10.9 2.9-16.5 5.6-11.1 16.7-15.7 28.1-11.4zM3640.5 3552.4c-6 1.9-8.4 3.4-14.2 8.9l-5.3 5V3553h-23v93h24.9l.3-31.3c.3-34.6.3-34.4 7.2-40.5 8.8-7.7 20.6-6.4 26.1 2.9 1.9 3.2 2 5.5 2.3 36.1l.3 32.8h24l-.3-37.8-.3-37.7-2.8-5.3c-3.2-6.1-8.8-10.6-16-12.7-6.1-1.8-17.7-1.8-23.2-.1zM3923.7 3553.4c-5.8 2.4-14.4 8.7-15.4 11.2-1.2 3.3-2.3.9-2.3-5.1v-6.5h-22v93h24v-25.3c0-29.7.9-37.6 4.8-43.1 5.2-7.5 14.6-10.3 22.6-6.8 3.9 1.8 5.1 3 6.8 6.9 2.1 4.5 2.2 6.6 2.6 36.5l.4 31.8h23.8v-33.4c0-18.3-.4-35.7-1-38.5-2.9-15.3-11.6-22.2-29-22.8-8.3-.3-10.2-.1-15.3 2.1zM4021.1 3552.5c-10.7 3.3-21 14.1-24.7 25.9-2.5 7.8-3 27.6-1 35.6 3.5 13.7 11 24.1 21.1 29 4.3 2.1 6.5 2.5 15 2.5 8.6 0 10.7-.3 15-2.4 2.7-1.4 6.9-4.4 9.3-6.8 2.3-2.4 4.5-4.3 4.9-4.3.3 0 .3 5.2 0 11.5-.6 13.1-2 16.6-7.7 20-2.9 1.6-5.2 2-12.8 2-9.3 0-9.4 0-12.3-3.3-1.6-1.8-2.9-3.8-2.9-4.5 0-1-3.3-1.7-11.2-2.6-6.2-.6-12.5-1.4-14-1.7-2.7-.5-2.8-.4-2.8 3.8 0 9.7 7.9 19.7 18.6 23.8 10.6 3.9 35.8 4.4 46.1.8 7.5-2.7 13.3-6.8 16.4-11.6 6.3-9.9 6.3-9.7 6.7-66l.3-51.2H4062v12.2l-5.5-5c-7.1-6.5-14.1-9.2-23.8-9.1-4 0-9.2.7-11.6 1.4zm28.2 19.3c8.3 4.8 12.3 15.2 11.5 29.4-.6 10.6-4.4 18-11.2 22.3-10.2 6.3-21.9 2.9-27.5-7.9-3.4-6.6-4.2-22.3-1.7-31 1.9-6.5 7.5-12.9 12.8-14.5 4.5-1.4 12.3-.6 16.1 1.7zM4197.9 3552.5c-16.8 4.6-29.4 18-32.9 35.2-1.6 7.5-.7 23.2 1.6 30.3 2.9 8.5 9 16.8 15.9 21.5 8.5 5.8 15.1 7.7 27.8 8.3 9.2.4 11.8.1 17.5-1.7 13-4.2 24.3-14.9 29.3-27.8 2.8-7.2 3.7-22.9 1.9-31.2-3.7-16.8-17.8-31.3-34.1-35-6-1.4-21.4-1.2-27 .4zm24.2 20.6c8.4 4.2 12.9 13.4 12.9 26.4 0 10.7-2.2 17.1-8 22.6-6 5.9-12.3 7.7-20.2 5.9-7.1-1.7-14-8.6-16.2-16.1-2-6.6-2.1-18-.1-24.5 4.2-14.2 18.8-20.8 31.6-14.3zM1889 3599.5v46.5h25v-93h-25v46.5zM1933 3553.7c0 .4 8.3 21.3 18.3 46.3l18.4 45.5h22.8l18.2-45.9c10.1-25.3 18.3-46.1 18.3-46.3 0-.2-5.6-.3-12.4-.3h-12.4l-1 2.7c-4.4 11-19.1 51.7-20.2 55.5-.7 2.7-1.6 4.8-2 4.8-.4 0-1.7-3.3-2.9-7.3-1.2-3.9-6.1-18-11-31.2l-8.9-24-12.6-.3c-6.9-.1-12.6.1-12.6.5zM2505 3553.6c0 .3 7.9 21.4 17.6 47l17.6 46.5-1.7 4.5c-2.3 6-6.7 11-11.1 12.4-2 .7-6.5 1-10.1.8l-6.5-.4.7 8.5c.8 10 1.6 11 8.9 11.3 21 .6 30.9-3.9 37.6-17.2 2.3-4.7 42-111.8 42-113.4 0-.3-5.6-.6-12.5-.6h-12.4l-10.8 33c-5.9 18.2-11 32.7-11.3 32.3-.4-.5-5.6-15.3-11.6-33l-10.9-32.3h-12.7c-7.1 0-12.8.2-12.8.6zM3482.3 3588.2c.5 38.5.9 41.6 6.5 49.4 1.6 2.1 5.3 5.2 8.3 6.9 5.1 2.8 6 3 16.4 3 10.1 0 11.4-.2 16.5-2.9 3-1.5 7.6-4.9 10.3-7.4l4.7-4.6v13.4h23v-93h-24.8l-.4 31.2c-.3 30.3-.4 31.4-2.6 35.5-6.3 12-24.4 13.8-30.7 3.2-1.9-3.2-2-5.5-2.3-36.7l-.3-33.2h-25.1l.5 35.2zM3829 3599.5v46.5h24v-93h-24v46.5zM1539.3 3723.5c-15 3.3-30 14.6-37 28-6 11.5-7.8 20-7.8 38 .1 18.1 1.3 24.1 7.2 35.9 4.4 8.8 15.3 19.9 23.4 23.9 11.8 5.9 26.1 7.8 39.6 5.4 19.1-3.5 31.3-13.5 38.7-31.6 1.4-3.6 2.6-7 2.6-7.7 0-.8-4.9-2.9-12.2-5.2l-12.3-3.9-1.6 5.3c-4.7 15-16.7 23.6-30.6 22-7.4-.9-11.3-2.7-16.8-7.7-7.4-6.8-9.8-12.9-11.5-28.7-1.8-17 1.2-33 7.8-41.7 7.6-10 21.9-14.1 34.3-10 6.7 2.2 14.2 9.5 16 15.4.7 2.2 1.7 4.1 2.3 4.1 3.5.1 24.6-5.5 24.6-6.5 0-3.5-8.3-17.6-13-22.3-12.1-11.9-33.7-17-53.7-12.7zM3259.7 3723.1c-7.7 1.8-13.3 6.4-16.1 13.1-.9 2-1.9 8.2-2.2 13.7l-.7 10.1H3228v19h13v75h25v-75h18v-19h-18v-7c0-6.3.3-7.4 2.5-9.6 2.4-2.4 3.1-2.5 10.8-2.3l8.2.4 1.3-7.2c.8-4 1.2-7.9.9-8.7-1.1-2.9-21.1-4.6-30-2.5zM3399.3 3723.5c-15 3.3-30 14.6-37 28-6 11.5-7.8 20-7.8 38 .1 17.8 1.3 24 6.8 35.5 4 8.4 15.9 20.6 23.8 24.4 12.1 5.8 26.2 7.7 39.8 5.2 17.1-3.1 28.6-11.7 36-26.8 6.9-14.1 7.3-13-7.1-17.5l-12.3-3.9-1.6 5.2c-4.6 14.9-16.8 23.6-30.6 22-17.1-2-26.1-13.3-28.4-35.8-1.8-17.8 1.1-33.4 8-42.3 11.8-15.5 37.6-15.3 47.5.4 1.4 2.2 2.8 5.1 3.2 6.5.3 1.4 1.1 2.6 1.8 2.6.6 0 6.4-1.2 12.9-2.7 13.5-3 12.9-1.9 7.1-14-8.2-17-25.3-26.4-47.9-26.2-4.4 0-10.8.7-14.2 1.4zM1098 3735v11h39v108h25v-108h39v-22h-103v11zM1223 3789v65h23.8l.4-30.8c.3-28.7.4-31 2.4-35.2 2.7-5.9 7.1-9.5 13.2-11 8.8-2.1 17.2 1.8 19.2 8.8.6 2.2 1 16.9 1 35.9v32.3h25v-31.3c-.1-35.8-.8-43.7-4.7-50.9-8.9-16.4-36.1-18.7-51.6-4.3-2.1 1.9-4 3.5-4.3 3.5-.2 0-.4-10.6-.4-23.5V3724h-24v65zM2312 3735.5v11.5h24v-23h-24v11.5zM2592 3789v65h26v-49h8.8c17.8-.1 34.5-1.8 40.7-4.1 8.3-3.1 17.3-12.1 20.4-20.4 7.6-20.4.4-43.3-16.3-51.5-8.3-4.1-17.1-4.9-52.3-5H2592v65zm59.2-42c4.4 1.3 9.3 5.2 11.3 9.1.8 1.5 1.5 5.2 1.5 8.1 0 7.4-3.1 12.5-9.4 15.7-4.5 2.3-6.2 2.6-20.8 2.9l-15.8.4V3746h14.8c8.1 0 16.4.5 18.4 1zM3494 3789v65h23.8l.5-30.3c.4-33.8.8-36.2 6.7-41.8 6.6-6.3 16.8-7.3 23.9-2.3 4.8 3.4 5.1 5.9 5.1 41.4v33h25.2l-.4-36.8-.3-36.7-3.1-6.6c-5.4-11.3-15.3-16.5-29.9-15.7-9.5.5-15.5 2.9-21.8 8.7-2.4 2.3-4.7 4.1-5.1 4.1-.3 0-.6-10.6-.6-23.5V3724h-24v65zM3609 3735.5v11.5h25v-23h-25v11.5zM2484.8 3734.3l-11.8 6.9v18.8h-11v19h11v27.5c0 15.8.5 29.5 1.1 32.4 2.4 11.3 9.7 16.5 23.3 16.5 8 0 17.1-1.8 18.2-3.6.3-.5.3-4.7-.1-9.3l-.7-8.5-6.7.6c-10.7 1-10.4 1.7-10.5-29.4l-.1-25.7 8.8-.3 8.7-.3V3760h-18l-.2-16.3-.3-16.3-11.7 6.9zM2911 3734.1l-11.5 6.7-.3 9.6-.3 9.6H2888v19h10.8l.4 30.7c.3 25.7.6 31.4 1.9 34.3 3.5 7.6 10.6 11.3 21.9 11.4 8.5 0 17.9-2 18.7-4 .3-.8.1-5.1-.4-9.6-.7-6.6-1.1-8.2-2.3-7.9-5.2 1.3-11.7 1.2-13.2-.3-2.2-2.2-3-12.3-2.6-35.1l.3-19 8.3-.3 8.2-.3V3760h-17l-.2-16.3-.3-16.3-11.5 6.7zM1362.7 3759.1c-6.3 1.5-13.8 5.9-18.8 11-8.6 8.9-12.9 21.1-12.9 36.9 0 14.8 3.2 25.3 10.2 34.3 14 17.7 49.2 19.4 65.4 3.1 4-4 11.3-16.4 9.7-16.4-.5 0-5.9-.9-12.2-2-6.3-1.1-11.5-1.9-11.6-1.7-.1.1-.7 1.6-1.4 3.3-4 10-17.5 12.9-26.9 5.7-3.9-3-8.2-11.3-8.2-16.1v-3.2h62.3l-.6-9.8c-1.6-25-11.8-39.6-31.4-44.7-6.2-1.6-17.6-1.8-23.6-.4zm22.4 20.4c4.1 2.6 7.5 8.7 8.5 15.2l.7 4.3h-38.5l.7-4.8c2.2-15 16.6-22.4 28.6-14.7zM1661.4 3759.9c-22.8 6.5-35.9 28.3-32.7 54.2 2.4 18.6 11.4 31 27.1 37.4 20.1 8.2 42.2 3.9 55.8-10.7 6.5-7.1 9.8-13.6 11.9-23.5 1.8-8.6 1.8-13 0-21.8-2.1-10-6-17.1-12.9-24-6.6-6.5-14-10.6-22.4-12.4-7.6-1.6-19.7-1.2-26.8.8zm24.4 20c5 2.6 8.7 6.6 11.3 12.6 1.8 4 2.2 6.8 2.2 14-.1 14.4-4 22.2-13.5 26.9-8.3 4.1-16.5 3.1-23.7-3-6-5.2-8.5-12-8.5-23.4 0-5.4.5-11.2 1.3-13.4 1.6-4.7 8.4-12.4 12.6-14.2 4.6-2 13.9-1.7 18.3.5zM1788.9 3759.5c-6.2 2.2-10 4.5-14.5 8.7l-4.4 4.1V3760h-23v94h24.9l.3-31.8c.3-30.7.4-31.8 2.6-35.9 3.2-6.1 8.8-9.6 15.7-9.7 6.5-.1 10.4 2.3 12.2 7.5.8 2.4 1.2 13.6 1.2 36.6l.1 33.3h24.9l.3-31.3c.3-29.5.4-31.5 2.5-35.9 5.6-12.1 21.7-14 27.3-3.2 1.2 2.4 1.6 9.1 1.8 36.6l.3 33.8h23.9v-35c0-21.3-.4-36.9-1.1-40-1.7-7.8-6.3-13.9-13.3-17.5-5.4-2.7-6.8-3-15.5-3-11.2 0-15.9 1.8-24.1 9.2l-5 4.5-4.5-5c-5.8-6.4-12.7-9.2-22.3-9.1-3.7 0-8.3.6-10.3 1.4zM1956 3758.9c-4.9 1.5-11.3 5.3-15.6 9.3l-4.4 4.1V3760h-23v94h25v-29.6c0-18.9.4-31.2 1.1-34.1 3.5-13.8 22.5-19.2 28.6-8 1.6 2.8 1.8 7 2.1 37.4l.3 34.3H1993.8l.5-29.8c.5-30.6 1-34.3 5-40.3 4.6-6.8 15-9.6 21.2-5.5 5.5 3.6 5.9 6 6.3 42.3l.4 33.3h23.9l-.3-37.8c-.3-32.9-.5-38.2-2-41.4-2.9-6.5-6.8-10.7-12.6-13.5-5-2.5-6.8-2.8-15.2-2.8-11.3 0-16.3 1.9-23.9 9l-4.9 4.6-5.4-5.5c-4.2-4.1-6.8-5.8-10.8-7-5.6-1.7-15.7-2-20-.7zM2240.3 3758.9c-5.4 1.4-11.6 5.1-16.5 9.9l-4.8 4.6V3760h-23v94H2219.7l.6-29.8c.3-17.8 1-31.2 1.7-33.5 1.3-4.5 6.1-10.2 10.4-12.4 4.4-2.3 12.4-2.2 16.5.2 1.9 1.1 4.3 3.8 5.5 6 2 3.8 2.1 5.8 2.4 36.7l.4 32.8h23.8v-35c0-20.8-.4-36.9-1.1-39.9-2.7-12.8-12.8-20.2-28.2-20.7-4.5-.2-9.6.1-11.4.5zM2386 3759c-11.5 2.5-20.7 10-23.5 19.4-1.9 6.3-1.9 9.9 0 16.3 3.4 11.3 11.4 15.8 41.5 23.3 13.6 3.4 16.3 5.1 16.3 10 0 6.2-6.8 10-17.9 10-9.6-.1-17.3-4.8-19.1-11.8-.6-2.4-.8-2.4-6.6-1.8-10.1 1-18.7 2.8-18.7 3.7 0 2.2 4.5 10.2 8 14.2 4.5 5 13.1 9.9 21 11.8 7.2 1.7 24 1.7 31 0 10.8-2.7 19.8-9.2 24.3-17.6 3-5.7 3.1-18.3.1-24-4.4-8.4-12-12.2-37.4-18.6-17.6-4.5-20.5-6-20.5-11 0-5.2 4.6-7.4 15.5-7.4 7.1 0 9.1.4 12.2 2.3 2 1.3 4.3 3.6 5 5.2 1.5 3.5 1.9 3.5 14.8 1.1 10.7-2 10.8-2.1 6.5-9.7-3.4-5.9-9.4-10.8-16.1-13.4-4.8-1.8-8.3-2.3-18.9-2.6-7.1-.2-15 .1-17.5.6zM2736.9 3759.8c-8.2 2.2-13.9 6-17.9 11.9-3.5 5.3-5.6 11.2-4.4 12.3.5.4 4.1 1.2 7.9 1.8 3.9.6 8.4 1.4 10.1 1.8 2.7.5 3.2.2 4.3-2.4 2.8-6.7 10-9.9 19.9-8.6 4.6.6 6.3 1.3 8.9 3.9 2.8 2.8 3.3 4.1 3.3 7.8v4.6l-5.2 1.5c-2.9.8-10.9 2.7-17.7 4.1-21.2 4.5-28.3 8.3-32.7 17.9-2.7 5.7-3.2 14.3-1.2 20.8 1.4 4.9 7.8 12.3 12.8 14.8 12.3 6.3 29.2 4.1 41.9-5.4 1.9-1.4 3.7-2.3 4.1-2.1.4.3 1.3 2.5 2 5l1.3 4.5h11.8c6.6 0 11.9-.1 11.9-.3 0-.1-1-3-2.2-6.2-2.1-5.6-2.2-8.2-2.8-38-.5-31-.6-32.1-2.9-36.8-2.7-5.5-6.9-9-14.3-11.9-7.6-3-29.5-3.6-38.9-1zm31.9 58.1c-.4 7.8-.7 9.3-3.2 12.5-3.7 4.8-9.8 7.9-16.2 8-15.3.2-19.8-18.8-5.5-23.5 4.9-1.7 21.1-5.7 23.5-5.8 1.7-.1 1.8.6 1.4 8.8zM2857.3 3759.9c-2.6 1.2-5.9 4.1-8.5 7.5l-4.3 5.6-.3-6.5-.3-6.5H2822v94h24v-23.3c.1-34.3 2-44.3 9.2-48.7 4-2.4 10.4-2.6 15.5-.5 2 .8 3.7 1.4 3.9 1.2.5-.4 7.4-20.1 7.1-20.3-5.2-4.1-18-5.5-24.4-2.5zM3152.3 3759.4c-12.5 3.1-24.8 12.9-29.9 24-9.2 20.2-5.5 45.5 8.8 59.3 9.6 9.3 27.2 14.5 41.8 12.4 19.5-2.9 35-17.1 39.5-36.2 6.3-27-8.2-52.7-33.8-59.5-6.3-1.7-19.4-1.7-26.4 0zm22 20c4.6 1.9 11.4 9.7 12.9 14.8.7 2.3 1.2 8.3 1.2 13.3 0 7.1-.5 10.1-2.4 14.3-5.8 13.2-20.3 17.8-32.3 10.2-5.6-3.6-9.2-9.5-10.7-18-2.7-15.1 2.6-28.6 13.5-34.3 3.7-2 13.5-2.2 17.8-.3zM3705.1 3759.9c-5.7 2.2-10.9 5.7-15.3 10.6l-2.8 2.9V3760h-23v94h23.8l.4-30.3.3-30.2 2.8-5.8c3.6-7.3 9.2-10.9 17.1-11.1 6.6 0 11.2 2.5 14 7.9 2 3.8 2.1 5.8 2.4 36.7l.4 32.8h23.9l-.3-37.8c-.3-35.9-.4-37.9-2.4-42.2-4.7-10-13.8-15.2-27.4-15.7-6.6-.3-9.7.1-13.9 1.6zM3800.5 3759.3c-7.9 2.1-12.2 4.6-16.9 9.9-4.3 4.7-8.5 13.2-7.3 14.5 1.1 1.1 21.1 4.5 21.4 3.6 1.1-3.1 4.7-7.5 7.5-9 4-2.1 14.9-2.3 19.7-.4 3.9 1.7 6.1 5.6 6.1 11 0 4 0 4.1-5.2 5.5-2.9.9-10.9 2.7-17.7 4.2-20.4 4.2-26.7 7.4-31.8 16.2-2.5 4.1-2.8 5.7-2.8 13.2 0 9.6 1.8 14.1 7.7 19.6 4.5 4.3 8.3 6.1 16 7.4 10.7 1.9 20.5-.5 30.7-7.5 2.9-2 5.4-3.5 5.5-3.3.2.2.9 2.4 1.6 5l1.3 4.8h24.5l-2.6-6.3c-2.6-6.1-2.6-6.7-3.2-38.2-.5-31.6-.5-32.1-3-37-2.7-5.4-9.2-10.5-15.8-12.6-5.7-1.7-29.8-2.1-35.7-.6zm30.5 57.1c0 11.2-2.4 15.7-10.5 19.8-6 3.1-13.3 2.9-17.8-.5-4.9-3.7-6.7-9.4-4.4-14.2 2.3-4.8 4.9-6.2 17.9-9.5 16-4 14.8-4.3 14.8 4.4zM2080.2 3795.7c.5 41.7.8 43.4 8.7 51.3 9.5 9.5 25.6 11.4 39.4 4.5 2.9-1.5 7.3-4.7 10-7.3l4.7-4.6v14.4h22v-94h-23.8l-.4 31.3-.3 31.4-3 4.8c-7.3 11.7-24.4 13-30.2 2.3-1.6-3-1.8-6.8-2.1-36.6l-.3-33.2h-25.1l.4 35.7zM2312 3807v47h24v-94h-24v47zM2952.5 3763.7c.8 2.1 8.9 23.4 18 47.3l16.5 43.5-3.3 6.5c-4.6 9.4-7.8 11.2-18.5 10.8l-8.3-.3.5 3.5c.3 1.9.8 6.1 1.2 9.3.8 6.8 1.4 7.1 14.4 7.1 15.7 0 25.5-5.2 31.3-16.5 1.4-3 11.4-29.3 22.1-58.4 10.7-29.2 19.7-53.8 20.1-54.8.7-1.6-.1-1.7-12.1-1.5l-12.8.3-10.6 32.2c-5.8 17.7-10.8 32.4-11.1 32.8-.4.3-5.6-14.1-11.6-32.2l-11-32.8-13.1-.3-13.2-.3 1.5 3.8zM3609 3807v47h25v-94h-25v47z"/></svg>