<svg version="1" xmlns="http://www.w3.org/2000/svg" width="756" height="756" viewBox="0 0 567.000000 567.000000"><path d="M0 283.5V567h566V0H0v283.5zM291.5 85l6.9 21h44.8l-17.3 12.6c-9.6 6.9-17.7 12.9-18.2 13.3-.4.4 2.4 10.2 6.2 21.9 3.7 11.6 6.3 20.8 5.7 20.5-.6-.4-7.7-5.5-15.7-11.4-8-5.9-15.8-11.4-17.2-12.3l-2.5-1.7-17.9 12.9c-9.8 7.2-17.9 12.9-18.1 12.8-.1-.2.5-2.2 1.3-4.6.8-2.4 3.9-11.8 6.9-21l5.3-16.7-17.8-12.9-17.8-12.9 22.2-.5 22.1-.5 6.8-20.5c3.7-11.3 6.8-20.6 6.8-20.8.1-1.4 1.6 2.8 7.5 20.8zm2.7 105.6c10.4 3.7 25.7 11.5 34.6 17.6 4.2 2.9 12.2 9.7 17.8 15 20.8 20 34.7 45.1 40.4 72.8 2.9 13.7 2.4 36-.9 48.5-2.3 8.7-8.8 23.1-12.7 28.2-1.3 1.7-2.4 3.5-2.3 4 .1.4 8 8.2 17.7 17.3 11 10.4 18 17.8 19 20 1.8 4.4 1.1 12.3-1.5 15.8-6.9 9.4-20.5 9.7-27.9.8-1.5-1.7-9.1-9.9-17-18.2l-14.3-15.1-6 2.8c-10 4.8-19.5 7-32.6 7.6-25.7 1.2-48.3-7-66.1-23.9l-7.3-6.9-1.6 3c-.9 1.9-3.8 4.4-7.3 6.3-9.5 5.3-15.5 12.2-21.2 24.2-8.5 17.8-19.9 26.6-34.4 26.6-9.6 0-10.6-1.1-10.6-10.9 0-14.8 8.2-25.6 25.7-34.2 12-5.9 18.6-11.5 24.1-20.9 3.2-5.5 4.8-7 9.8-9.7 3.4-1.8 7.5-3.2 9.6-3.2 2.4-.1 4.7-1 6.7-2.7l3.1-2.6 5.3 4.6c7.7 6.5 16.1 11.3 25.2 14.3 13.2 4.3 31.7 3.7 44.8-1.4 2-.9 3.7-1.9 3.7-2.4 0-.4-8.9-10-19.8-21.1-10.8-11.2-27.4-28.3-36.7-38l-17-17.7-14.8 14.1-14.8 14.1-15.5-15.4-15.4-15.4 31.3-30.7 31.4-30.6 25.4 3.4c14 2 26.1 3.7 26.8 4 1 .3-5.1 7.1-17.9 19.9-11.9 11.9-19.1 19.8-18.5 20.3.6.5 17.7 16.6 38 35.7 20.4 19.2 38.2 35.9 39.6 37.2l2.6 2.4 4.1-6.3c8.9-13.6 12.3-29.3 10.3-47-2.1-18.7-8.7-39.4-17.6-55.3-9.1-16.4-27.7-36.1-44.4-47.3-5.1-3.4-9-6.2-8.7-6.2.3 0 3.8 1.2 7.8 2.6z"/><path d="M283.4 87.4c-.4 1-2.3 7-4.3 13.4l-3.7 11.7-14.3.3-14.3.3 11.1 8c6.1 4.4 11.1 8.6 11.1 9.2 0 .7-1.8 6.8-3.9 13.7-2.2 6.8-3.9 12.6-3.7 12.7.1.1 5.1-3.3 11.1-7.7s11.3-8 11.8-8 5.4 3.3 11 7.3c5.6 4.1 10.7 7.7 11.3 8 .6.4-.8-5.5-3.2-13-2.4-7.5-4-13.9-3.6-14.2.5-.4 5.5-4 11.3-8.1l10.3-7.5-13.9-.5-14-.5-4.2-12.8c-2.3-7.1-4.4-13.1-4.7-13.4-.3-.3-.9.2-1.2 1.1z"/></svg>